<?xml version="1.0" encoding="UTF-8"?><svg id="a" xmlns="http://www.w3.org/2000/svg" viewBox="0 0 865.52 846.84"><defs><style>.b{fill:#fff;}</style></defs><path class="b" d="M702.69,268.44c0-12.4-10.09-22.49-22.49-22.49s-22.49,10.09-22.49,22.49,10.09,22.49,22.49,22.49,22.49-10.09,22.49-22.49Z"/><path class="b" d="M733.65,231.17c0-12.4-10.09-22.49-22.49-22.49s-22.49,10.09-22.49,22.49,10.09,22.49,22.49,22.49,22.49-10.09,22.49-22.49Z"/><path class="b" d="M351.41,197.49c-12.4,0-22.49,10.09-22.49,22.49s10.09,22.49,22.49,22.49,22.49-10.09,22.49-22.49-10.09-22.49-22.49-22.49Z"/><path class="b" d="M576.08,801.86c-12.4,0-22.49,10.09-22.49,22.49s10.09,22.49,22.49,22.49,22.49-10.09,22.49-22.49-10.09-22.49-22.49-22.49Z"/><circle class="b" cx="763.78" cy="169.21" r="15.18"/><path class="b" d="M531.32,161.03c6.47,0,11.99-4.07,14.17-9.78-.07,.72-.11,1.45-.11,2.18,0,12.4,10.09,22.49,22.49,22.49s22.49-10.09,22.49-22.49c0-3-.6-5.87-1.67-8.49,2.77,3.69,7.17,6.09,12.13,6.09,8.37,0,15.18-6.81,15.18-15.18s-6.81-15.18-15.18-15.18-15.18,6.81-15.18,15.18c0,1.75,.31,3.43,.86,5-4.05-5.97-10.89-9.9-18.63-9.9-10,0-18.49,6.56-21.41,15.6,.01-.23,.04-.46,.04-.7,0-8.37-6.81-15.18-15.18-15.18s-15.18,6.81-15.18,15.18,6.81,15.18,15.18,15.18Z"/><circle class="b" cx="452.01" cy="700.25" r="15.18"/><circle class="b" cx="513.93" cy="771.69" r="15.18"/><circle class="b" cx="621.58" cy="649.81" r="15.18" transform="translate(-216.63 975.41) rotate(-67.5)"/><circle class="b" cx="591.45" cy="635.02" r="15.18" transform="translate(-221.57 938.44) rotate(-67.5)"/><path class="b" d="M540.72,779.33c-8.37,0-15.18,6.81-15.18,15.18,0,3.68,1.32,7.05,3.5,9.68-1.28-.51-2.67-.8-4.13-.8-6.18,0-11.22,5.03-11.22,11.22s5.03,11.22,11.22,11.22,11.22-5.03,11.22-11.22c0-2.42-.78-4.66-2.09-6.49,2.02,1,4.28,1.57,6.68,1.57,8.37,0,15.18-6.81,15.18-15.18s-6.81-15.18-15.18-15.18Z"/><circle class="b" cx="607.05" cy="802.94" r="15.18"/><path class="b" d="M425.53,187.14c8.37,0,15.18-6.81,15.18-15.18s-6.81-15.18-15.18-15.18-15.18,6.81-15.18,15.18,6.81,15.18,15.18,15.18Z"/><path class="b" d="M481.96,170.3c5.14,0,9.69-2.58,12.44-6.51-.4,1.15-.63,2.39-.63,3.68,0,6.18,5.03,11.22,11.22,11.22s11.22-5.03,11.22-11.22-5.03-11.22-11.22-11.22c-3.64,0-6.87,1.75-8.92,4.44,.69-1.73,1.08-3.61,1.08-5.58,0-8.37-6.81-15.18-15.18-15.18s-15.18,6.81-15.18,15.18,6.81,15.18,15.18,15.18Z"/><path class="b" d="M320.24,273.81c10.18,0,18.47-8.28,18.47-18.47s-8.28-18.47-18.47-18.47-18.47,8.28-18.47,18.47,8.28,18.47,18.47,18.47Z"/><circle class="b" cx="426.74" cy="664.97" r="18.47"/><path class="b" d="M306.7,579.62c0-10.18-8.28-18.47-18.47-18.47s-18.47,8.28-18.47,18.47,8.28,18.47,18.47,18.47,18.47-8.28,18.47-18.47Z"/><path class="b" d="M422.75,630.53c0-10.18-8.28-18.47-18.47-18.47s-18.47,8.28-18.47,18.47,8.28,18.47,18.47,18.47,18.47-8.28,18.47-18.47Z"/><path class="b" d="M407.77,193.02c0-10.18-8.28-18.47-18.47-18.47s-18.47,8.28-18.47,18.47,8.28,18.47,18.47,18.47,18.47-8.28,18.47-18.47Z"/><path class="b" d="M721.22,197.25c0,10.18,8.28,18.47,18.47,18.47s18.47-8.28,18.47-18.47-8.28-18.47-18.47-18.47-18.47,8.28-18.47,18.47Z"/><path class="b" d="M652.76,147.34c0,8.37,6.81,15.18,15.18,15.18s15.18-6.81,15.18-15.18-6.81-15.18-15.18-15.18h0c4.55-1.43,7.85-5.69,7.85-10.7,0-6.18-5.03-11.22-11.22-11.22s-11.22,5.03-11.22,11.22,4.81,10.98,10.8,11.19c-6.54,1.69-11.4,7.62-11.4,14.68Z"/><path class="b" d="M756.53,119.2c8.37,0,15.18-6.81,15.18-15.18,0-7.09-4.89-13.05-11.48-14.7,5.9-.32,10.6-5.21,10.6-11.18s-5.03-11.21-11.22-11.21-11.22,5.03-11.22,11.21c0,5.04,3.34,9.31,7.92,10.72-8.27,.12-14.97,6.87-14.97,15.17s6.81,15.18,15.18,15.18Z"/><circle class="b" cx="638.13" cy="272.99" r="15.18"/><circle class="b" cx="746.8" cy="264.81" r="15.18" transform="translate(-32.77 123.04) rotate(-9.22)"/><circle class="b" cx="647.6" cy="620.48" r="15.18" transform="translate(-173.47 981.34) rotate(-67.5)"/><path class="b" d="M387.62,166.34c6.18,0,11.22-5.03,11.22-11.22s-5.03-11.22-11.22-11.22-11.22,5.03-11.22,11.22,5.03,11.22,11.22,11.22Z"/><path class="b" d="M824.25,62.21c-4.88,0-9.03,3.14-10.57,7.51,.03-.45,.07-.89,.07-1.34,0-10.18-8.28-18.47-18.47-18.47s-18.47,8.28-18.47,18.47,8.28,18.47,18.47,18.47c8.44,0,15.56-5.7,17.76-13.45,0,.01,0,.03,0,.04,0,6.18,5.03,11.22,11.22,11.22s11.22-5.03,11.22-11.22-5.03-11.22-11.22-11.22Z"/><path class="b" d="M699.64,124.41c6.18,0,11.22-5.03,11.22-11.22,0-1.19-.19-2.34-.54-3.42,2.74,3.99,7.33,6.62,12.53,6.62,8.37,0,15.18-6.81,15.18-15.18,0-7.62-5.65-13.93-12.97-15,3.66-.27,6.55-3.32,6.55-7.05s-3.17-7.07-7.07-7.07-7.07,3.17-7.07,7.07c0,3.33,2.32,6.12,5.42,6.87h-.03c-8.37,0-15.18,6.81-15.18,15.18,0,1.88,.36,3.66,.98,5.32-2.04-2.76-5.32-4.56-9.01-4.56-6.18,0-11.22,5.03-11.22,11.22s5.03,11.22,11.22,11.22Z"/><path class="b" d="M457.34,185.52c6.18,0,11.22-5.03,11.22-11.22s-5.03-11.22-11.22-11.22-11.22,5.03-11.22,11.22,5.03,11.22,11.22,11.22Z"/><path class="b" d="M737.34,684.07c-6.18,0-11.22,5.03-11.22,11.21s5.03,11.22,11.22,11.22,11.22-5.03,11.22-11.22-5.03-11.21-11.22-11.21Z"/><path class="b" d="M784.98,242.36c-6.18,0-11.22,5.03-11.22,11.22s5.03,11.22,11.22,11.22,11.22-5.03,11.22-11.22-5.03-11.22-11.22-11.22Z"/><circle class="b" cx="782.87" cy="147.36" r="11.22"/><circle class="b" cx="618.3" cy="159.89" r="11.22"/><path class="b" d="M362.14,580.34c-5.21,0-9.59,3.58-10.84,8.4-.52-9.72-8.57-17.48-18.42-17.48s-18.47,8.28-18.47,18.47,8.28,18.47,18.47,18.47c9.05,0,16.59-6.55,18.15-15.16,.73,5.49,5.42,9.74,11.11,9.74,6.18,0,11.22-5.03,11.22-11.22s-5.03-11.22-11.22-11.22Z"/><path class="b" d="M500.75,756.18c0-6.18-5.03-11.22-11.22-11.22-1.39,0-2.72,.27-3.95,.73,4.65-2.6,7.81-7.56,7.81-13.26,0-8.37-6.81-15.18-15.18-15.18s-15.18,6.81-15.18,15.18,6.81,15.18,15.18,15.18c2.01,0,3.92-.4,5.67-1.11-3.32,1.95-5.56,5.55-5.56,9.67,0,6.18,5.03,11.22,11.22,11.22s11.22-5.03,11.22-11.22Z"/><path class="b" d="M566.09,630.61c6.18,0,11.22-5.03,11.22-11.22s-5.03-11.22-11.22-11.22-11.22,5.03-11.22,11.22,5.03,11.22,11.22,11.22Z"/><path class="b" d="M705.72,643.36c-6.18,0-11.22,5.03-11.22,11.22,0,3.36,1.49,6.36,3.83,8.42-2.44-.91-5.07-1.41-7.82-1.41-6.81,0-12.92,3.05-17.05,7.85,.65-1.89,1.03-3.91,1.03-6.02,0-10.18-8.28-18.47-18.47-18.47s-18.47,8.28-18.47,18.47,8.28,18.47,18.47,18.47c5.35,0,10.15-2.3,13.53-5.94-.98,2.52-1.53,5.27-1.53,8.13,0,5.73,2.16,10.97,5.7,14.94-2.17-.9-4.55-1.4-7.05-1.4-10.18,0-18.47,8.28-18.47,18.47,0,5.98,2.87,11.29,7.29,14.66-1.49-.49-3.07-.76-4.72-.76-8.37,0-15.18,6.81-15.18,15.18,0,2.29,.52,4.45,1.43,6.4-3.98-3.57-9.23-5.74-14.99-5.74-12.4,0-22.49,10.09-22.49,22.49s10.09,22.49,22.49,22.49,22.49-10.09,22.49-22.49c0-4.03-1.07-7.81-2.93-11.08,2.55,1.95,5.73,3.12,9.18,3.12,8.37,0,15.18-6.81,15.18-15.18,0-4.73-2.18-8.96-5.58-11.75,1.97,.72,4.08,1.13,6.3,1.13,10.18,0,18.47-8.28,18.47-18.47,0-4.41-1.56-8.46-4.14-11.63,2.89,1.35,6.11,2.12,9.51,2.12,12.4,0,22.49-10.09,22.49-22.49,0-7.72-3.91-14.55-9.86-18.6,.83,.2,1.69,.31,2.58,.31,6.18,0,11.22-5.03,11.22-11.22s-5.03-11.22-11.22-11.22Z"/><path class="b" d="M402.79,145.35c3.9,0,7.07-3.17,7.07-7.07s-3.17-7.07-7.07-7.07-7.07,3.17-7.07,7.07,3.17,7.07,7.07,7.07Z"/><path class="b" d="M548.33,125.13c3.9,0,7.07-3.17,7.07-7.07s-3.17-7.07-7.07-7.07-7.07,3.17-7.07,7.07,3.17,7.07,7.07,7.07Z"/><circle class="b" cx="696.54" cy="58.98" r="7.07"/><path class="b" d="M532.72,600.96c0,3.9,3.17,7.07,7.07,7.07s7.07-3.17,7.07-7.07-3.17-7.07-7.07-7.07-7.07,3.17-7.07,7.07Z"/><path class="b" d="M797.97,120.53c-3.9,0-7.07,3.17-7.07,7.07s3.17,7.07,7.07,7.07,7.07-3.17,7.07-7.07-3.17-7.07-7.07-7.07Z"/><path class="b" d="M647.14,298.97c-3.9,0-7.07,3.17-7.07,7.07s3.17,7.07,7.07,7.07,7.07-3.17,7.07-7.07-3.17-7.07-7.07-7.07Z"/><path class="b" d="M764.84,681.48c-3.9,0-7.07,3.17-7.07,7.07s3.17,7.07,7.07,7.07,7.07-3.17,7.07-7.07-3.17-7.07-7.07-7.07Z"/><path class="b" d="M858.45,116.72c-3.9,0-7.07,3.17-7.07,7.07s3.17,7.07,7.07,7.07,7.07-3.17,7.07-7.07-3.17-7.07-7.07-7.07Z"/><path class="b" d="M755.28,232.24c0,3.9,3.17,7.07,7.07,7.07s7.07-3.17,7.07-7.07-3.17-7.07-7.07-7.07-7.07,3.17-7.07,7.07Z"/><path class="b" d="M803.75,101.55c0,3.9,3.17,7.07,7.07,7.07s7.07-3.17,7.07-7.07-3.17-7.07-7.07-7.07-7.07,3.17-7.07,7.07Z"/><path class="b" d="M675.59,649.88c0,3.9,3.17,7.07,7.07,7.07s7.07-3.17,7.07-7.07-3.17-7.07-7.07-7.07-7.07,3.17-7.07,7.07Z"/><path class="b" d="M455,747.74c-3.9,0-7.07,3.17-7.07,7.07s3.17,7.07,7.07,7.07,7.07-3.17,7.07-7.07-3.17-7.07-7.07-7.07Z"/><path class="b" d="M536.45,753.45c-3.9,0-7.07,3.17-7.07,7.07s3.17,7.07,7.07,7.07,7.07-3.17,7.07-7.07-3.17-7.07-7.07-7.07Z"/><path class="b" d="M312.85,628.75c-.48,0-.95,.05-1.4,.14,4.3-1.57,7.38-5.69,7.38-10.53,0-6.18-5.03-11.22-11.22-11.22s-11.22,5.03-11.22,11.22,5.03,11.21,11.22,11.21c.9,0,1.77-.12,2.61-.32-2.6,1.04-4.45,3.59-4.45,6.56,0,3.9,3.17,7.07,7.07,7.07s7.07-3.17,7.07-7.07-3.17-7.07-7.07-7.07Z"/><path class="b" d="M271.11,640.21c-3.9,0-7.07,3.17-7.07,7.07s3.17,7.07,7.07,7.07,7.07-3.17,7.07-7.07-3.17-7.07-7.07-7.07Z"/><path class="b" d="M493.75,790.86c-3.9,0-7.07,3.17-7.07,7.07s3.17,7.07,7.07,7.07,7.07-3.17,7.07-7.07-3.17-7.07-7.07-7.07Z"/><g><g><path class="b" d="M161.01,342.27c-.49-4.94-1.74-9.4-3.78-13.38-2.04-3.97-4.85-7.15-8.43-9.52-3.59-2.37-8.05-3.51-13.38-3.42-5.43,0-9.74,1.5-12.94,4.51-3.2,3.01-4.8,6.64-4.8,10.91,0,3.78,1.07,6.96,3.2,9.52,2.13,2.57,5.02,4.87,8.65,6.91,3.64,2.04,7.73,4.07,12.29,6.11,3.68,1.55,7.42,3.3,11.2,5.23,3.78,1.94,7.22,4.14,10.32,6.62,3.1,2.47,5.57,5.43,7.42,8.87,1.84,3.44,2.76,7.49,2.76,12.14,0,5.43-1.41,10.28-4.22,14.54-2.81,4.27-6.81,7.61-12,10.03-5.19,2.42-11.46,3.64-18.83,3.64-4.17,0-8.56-.63-13.16-1.89-4.61-1.26-8.8-3.05-12.58-5.38l.73,6.11h-8.87l-.58-31.99h6.98c.77,8.43,3.8,14.81,9.09,19.12,5.28,4.31,11.61,6.47,18.98,6.47,3.68,0,7.03-.68,10.03-2.04,3-1.36,5.38-3.29,7.13-5.82,1.75-2.52,2.62-5.48,2.62-8.87,0-3.97-1.19-7.32-3.56-10.03-2.38-2.71-5.38-5.04-9.02-6.98-3.64-1.94-7.44-3.78-11.42-5.53-3.98-1.75-7.83-3.59-11.56-5.53-3.73-1.94-7.1-4.17-10.11-6.69-3.01-2.52-5.38-5.5-7.13-8.94-1.75-3.44-2.62-7.49-2.62-12.14,0-2.71,.48-5.57,1.45-8.58,.97-3,2.62-5.86,4.94-8.58,2.33-2.71,5.5-4.92,9.52-6.62,4.02-1.69,9.09-2.55,15.2-2.55,3.68,0,7.83,.53,12.43,1.6,4.6,1.07,8.8,2.96,12.58,5.67l-.58-6.11h8.72v32.57h-6.69Z"/><path class="b" d="M223.61,412.65c-.2-1.55-.34-2.91-.44-4.07-.1-1.16-.24-2.37-.44-3.64-3.3,3.3-6.83,5.79-10.62,7.49-3.78,1.69-7.71,2.55-11.78,2.55-6.98,0-12.24-1.72-15.78-5.16-3.54-3.44-5.31-7.73-5.31-12.87,0-4.46,1.31-8.34,3.93-11.63,2.62-3.29,6.06-5.98,10.32-8.07,4.26-2.08,8.92-3.64,13.96-4.65,5.04-1.02,9.98-1.53,14.83-1.53v-8.58c0-3.1-.29-5.99-.87-8.65-.58-2.67-1.77-4.85-3.56-6.54-1.79-1.69-4.58-2.54-8.36-2.54-2.52-.1-5.04,.36-7.56,1.38-2.52,1.02-4.46,2.69-5.82,5.02,.77,.78,1.28,1.67,1.53,2.69,.24,1.02,.36,1.96,.36,2.84,0,1.36-.58,2.89-1.75,4.58-1.16,1.7-3.15,2.5-5.96,2.4-2.33,0-4.1-.8-5.31-2.4-1.21-1.6-1.82-3.46-1.82-5.6,0-3.49,1.28-6.59,3.85-9.31,2.57-2.71,6.08-4.85,10.54-6.4,4.46-1.55,9.45-2.33,14.98-2.33,8.34,0,14.56,2.18,18.69,6.54,4.12,4.36,6.18,11.25,6.18,20.65v10.03c0,3.2-.03,6.4-.07,9.6-.05,3.2-.07,6.59-.07,10.18,0,1.45-.05,3.1-.15,4.94-.1,1.84-.24,3.78-.44,5.82,1.65-.1,3.34-.19,5.09-.29,1.74-.1,3.39-.15,4.94-.15v7.71h-23.12Zm-1.31-34.9c-3.1,.2-6.28,.63-9.52,1.31-3.25,.68-6.18,1.7-8.8,3.05-2.62,1.36-4.73,3.1-6.33,5.24-1.6,2.13-2.4,4.7-2.4,7.71,.19,3.3,1.28,5.72,3.27,7.27,1.99,1.55,4.34,2.33,7.05,2.33,3.39,0,6.4-.65,9.02-1.96,2.62-1.31,5.18-3.13,7.71-5.45-.1-1.07-.15-2.16-.15-3.27v-3.56c0-.87,.02-2.5,.07-4.87,.05-2.37,.07-4.97,.07-7.78Z"/><path class="b" d="M254.5,412.65v-6.11c2.91,0,4.94-.68,6.11-2.04,1.16-1.36,1.87-3.25,2.11-5.67,.24-2.42,.36-5.24,.36-8.43l.15-30.25c0-1.55,.02-3.22,.07-5.02,.05-1.79,.22-3.56,.51-5.31-1.75,.1-3.52,.17-5.31,.22-1.79,.05-3.47,.12-5.02,.22v-7.71c4.36,0,7.78-.22,10.25-.65,2.47-.44,4.36-.94,5.67-1.53,1.31-.58,2.3-1.21,2.98-1.89h5.23c.1,.87,.17,1.7,.22,2.47,.05,.78,.1,1.6,.15,2.47,.05,.87,.12,1.99,.22,3.34,2.13-1.75,4.46-3.29,6.98-4.65,2.52-1.36,5.16-2.45,7.93-3.27,2.76-.82,5.4-1.24,7.93-1.24,8.63,0,14.85,2.62,18.69,7.85,3.83,5.24,5.74,13.43,5.74,24.58v24.58c0,1.74-.05,3.51-.15,5.31-.1,1.79-.24,3.61-.44,5.45,1.55-.1,3.13-.17,4.73-.22,1.6-.05,3.08-.12,4.43-.22v7.71h-32.43v-6.11c2.91,0,4.94-.68,6.11-2.04,1.16-1.36,1.87-3.25,2.11-5.67,.24-2.42,.36-5.24,.36-8.43v-20.36c-.1-7.66-1.33-13.43-3.71-17.3-2.38-3.88-6.18-5.77-11.42-5.67-3.1,0-6.16,.78-9.16,2.33-3.01,1.55-5.53,3.44-7.56,5.67v39.55c0,1.74-.05,3.51-.15,5.31-.1,1.79-.24,3.61-.44,5.45,1.55-.1,3.13-.17,4.73-.22,1.6-.05,3.08-.12,4.44-.22v7.71h-32.43Z"/><path class="b" d="M371.38,414.97c-6.5,0-12.46-1.48-17.89-4.44-5.43-2.96-9.77-7.2-13.01-12.72-3.25-5.53-4.87-12.21-4.87-20.07,0-5.23,.92-10.25,2.76-15.05,1.84-4.8,4.43-9.09,7.78-12.87,3.34-3.78,7.32-6.76,11.92-8.94,4.6-2.18,9.72-3.27,15.34-3.27s10.62,.87,14.69,2.62c4.07,1.75,7.2,4.02,9.38,6.83,2.18,2.81,3.27,5.87,3.27,9.16,0,2.33-.68,4.36-2.04,6.11-1.36,1.75-3.3,2.62-5.82,2.62-2.81,.1-4.8-.75-5.96-2.54-1.16-1.79-1.75-3.46-1.75-5.02,0-.87,.15-1.87,.44-2.98,.29-1.11,.82-2.11,1.6-2.98-.78-2.04-2.04-3.54-3.78-4.51-1.74-.97-3.54-1.6-5.38-1.89-1.84-.29-3.39-.44-4.65-.44-5.91,.1-10.88,2.64-14.91,7.63-4.02,4.99-6.03,12.19-6.03,21.59,0,6.01,.9,11.39,2.69,16.14,1.79,4.75,4.44,8.53,7.93,11.34,3.49,2.81,7.66,4.27,12.51,4.36,4.36,0,8.58-1.14,12.65-3.42,4.07-2.28,7.37-5.16,9.89-8.65l4.65,4.07c-2.81,4.36-6.03,7.8-9.67,10.32-3.64,2.52-7.32,4.31-11.05,5.38-3.73,1.07-7.3,1.6-10.69,1.6Z"/><path class="b" d="M436.67,414.97c-2.42,0-4.85-.32-7.27-.95-2.42-.63-4.68-1.89-6.76-3.78-2.09-1.89-3.71-4.63-4.87-8.22-1.16-3.59-1.75-8.34-1.75-14.25l.29-39.7h-10.76v-8.14c2.62-.1,5.28-1.07,8-2.91,2.71-1.84,5.09-4.31,7.13-7.42,2.04-3.1,3.44-6.45,4.22-10.03h6.83v20.36h22.39v7.56l-22.39,.29-.29,38.83c0,3.69,.31,6.91,.95,9.67,.63,2.76,1.7,4.9,3.2,6.4,1.5,1.5,3.56,2.25,6.18,2.25,2.23,0,4.53-.68,6.91-2.04,2.37-1.36,4.63-3.59,6.76-6.69l4.94,4.36c-2.33,3.39-4.65,6.06-6.98,8-2.33,1.94-4.56,3.37-6.69,4.29-2.13,.92-4.07,1.5-5.82,1.75-1.75,.24-3.15,.36-4.22,.36Z"/><path class="b" d="M495.29,414.97c-5.43,0-9.91-1.02-13.45-3.05-3.54-2.04-6.18-5.4-7.93-10.11-1.74-4.7-2.62-10.93-2.62-18.69v-22.83c0-1.65,.02-3.37,.07-5.16,.05-1.79,.22-3.56,.51-5.31-1.65,.1-3.39,.17-5.23,.22-1.84,.05-3.49,.12-4.94,.22v-7.71h3.49c4.85,0,8.48-.44,10.91-1.31,2.42-.87,4.12-1.79,5.09-2.76h5.53v44.35c0,7.66,1.07,13.38,3.2,17.16,2.13,3.78,5.72,5.62,10.76,5.53,3.29,0,6.47-.97,9.52-2.91,3.05-1.94,5.55-4.22,7.49-6.83v-34.46c0-2.13,.05-4.14,.15-6.03,.1-1.89,.29-3.71,.58-5.45-1.74,.1-3.54,.17-5.38,.22-1.84,.05-3.54,.12-5.09,.22v-7.71h4.22c4.26,0,7.61-.44,10.03-1.31,2.42-.87,4.17-1.79,5.23-2.76h5.53l-.15,53.51c0,1.55-.05,3.66-.15,6.33-.1,2.67-.24,5.02-.44,7.05,1.65-.1,3.37-.19,5.16-.29,1.79-.1,3.46-.15,5.02-.15v7.71h-23.12c-.2-1.55-.36-3-.51-4.36-.15-1.36-.32-2.66-.51-3.93-3.01,2.81-6.5,5.28-10.47,7.42-3.98,2.13-8.14,3.2-12.51,3.2Z"/><path class="b" d="M590.89,412.65c-.2-1.55-.34-2.91-.44-4.07-.1-1.16-.24-2.37-.44-3.64-3.3,3.3-6.83,5.79-10.62,7.49-3.78,1.69-7.71,2.55-11.78,2.55-6.98,0-12.24-1.72-15.78-5.16-3.54-3.44-5.31-7.73-5.31-12.87,0-4.46,1.31-8.34,3.93-11.63,2.62-3.29,6.06-5.98,10.32-8.07,4.26-2.08,8.92-3.64,13.96-4.65,5.04-1.02,9.98-1.53,14.83-1.53v-8.58c0-3.1-.29-5.99-.87-8.65-.58-2.67-1.77-4.85-3.56-6.54-1.79-1.69-4.58-2.54-8.36-2.54-2.52-.1-5.04,.36-7.56,1.38-2.52,1.02-4.46,2.69-5.82,5.02,.77,.78,1.28,1.67,1.53,2.69,.24,1.02,.36,1.96,.36,2.84,0,1.36-.58,2.89-1.75,4.58-1.16,1.7-3.15,2.5-5.96,2.4-2.33,0-4.1-.8-5.31-2.4-1.21-1.6-1.82-3.46-1.82-5.6,0-3.49,1.28-6.59,3.85-9.31,2.57-2.71,6.08-4.85,10.54-6.4,4.46-1.55,9.45-2.33,14.98-2.33,8.34,0,14.56,2.18,18.69,6.54,4.12,4.36,6.18,11.25,6.18,20.65v10.03c0,3.2-.03,6.4-.07,9.6-.05,3.2-.07,6.59-.07,10.18,0,1.45-.05,3.1-.15,4.94-.1,1.84-.24,3.78-.44,5.82,1.65-.1,3.34-.19,5.09-.29,1.74-.1,3.39-.15,4.94-.15v7.71h-23.12Zm-1.31-34.9c-3.1,.2-6.28,.63-9.52,1.31-3.25,.68-6.18,1.7-8.8,3.05-2.62,1.36-4.73,3.1-6.33,5.24-1.6,2.13-2.4,4.7-2.4,7.71,.19,3.3,1.28,5.72,3.27,7.27,1.99,1.55,4.34,2.33,7.05,2.33,3.39,0,6.4-.65,9.02-1.96,2.62-1.31,5.18-3.13,7.71-5.45-.1-1.07-.15-2.16-.15-3.27v-3.56c0-.87,.02-2.5,.07-4.87,.05-2.37,.07-4.97,.07-7.78Z"/><path class="b" d="M620.99,406.54c2.91,0,4.94-.68,6.11-2.04,1.16-1.36,1.87-3.25,2.11-5.67,.24-2.42,.36-5.24,.36-8.43v-30.25c0-1.55,.02-3.22,.07-5.02,.05-1.79,.22-3.56,.51-5.31-1.65,.1-3.39,.17-5.23,.22-1.84,.05-3.54,.12-5.09,.22v-7.71h4.94c4.07,0,7.17-.44,9.31-1.31,2.13-.87,3.68-1.79,4.65-2.76h5.23c.19,1.36,.34,3.25,.44,5.67,.1,2.42,.19,5.14,.29,8.14,1.84-2.71,3.97-5.16,6.4-7.34,2.42-2.18,5.06-3.95,7.93-5.31,2.86-1.36,5.84-2.04,8.94-2.04s5.6,.8,7.78,2.4c2.18,1.6,3.27,4.19,3.27,7.78,0,.97-.27,2.09-.8,3.34-.53,1.26-1.41,2.35-2.62,3.27-1.21,.92-2.84,1.38-4.87,1.38-2.04-.1-3.81-.87-5.31-2.33-1.5-1.45-2.21-3.44-2.11-5.96-2.33,0-4.65,.7-6.98,2.11-2.33,1.41-4.49,3.27-6.47,5.6-1.99,2.33-3.66,4.85-5.02,7.56v31.85c0,1.74-.03,3.51-.07,5.31-.05,1.79-.22,3.61-.51,5.45,1.55-.1,3.15-.17,4.8-.22,1.65-.05,3.15-.12,4.51-.22v7.71h-32.57v-6.11Z"/><path class="b" d="M704.18,452.05c-3.2,0-5.94-.85-8.22-2.55-2.28-1.7-3.42-4.14-3.42-7.34,0-2.04,.65-3.88,1.96-5.53,1.31-1.65,3.03-2.47,5.16-2.47,2.33-.1,4,.63,5.02,2.18,1.02,1.55,1.53,3.15,1.53,4.8v.87c0,.29-.05,.63-.15,1.02,.29,.19,.73,.24,1.31,.15,1.07-.1,2.23-.68,3.49-1.75,1.26-1.07,2.42-2.57,3.49-4.51,1.16-2.13,2.47-5.09,3.93-8.87,1.45-3.78,3.05-8.14,4.8-13.09l-22.83-47.7c-2.62-5.43-4.43-9.67-5.45-12.72-1.02-3.05-1.67-5.45-1.96-7.2l-6.98,.29v-7.71h32.14v5.96h-.29c-3.98,.39-6.13,1.89-6.47,4.51-.34,2.62,.56,6.21,2.69,10.76l16,35.19c1.84-4.94,3.71-10.32,5.6-16.14,1.89-5.82,3.85-11.78,5.89-17.89,.68-1.84,1.38-3.8,2.11-5.89,.73-2.08,1.5-4,2.33-5.74,.82-1.75,1.62-2.96,2.4-3.64l-9.45,.58v-7.71h23.85v5.96c-3.39,1.16-6.03,3.3-7.93,6.4-1.89,3.1-3.71,7.03-5.45,11.78l-18.18,51.19c-2.81,8.05-5.43,14.81-7.85,20.28-2.42,5.48-5.11,9.6-8.07,12.36-2.96,2.76-6.62,4.14-10.98,4.14Z"/></g><g><g><path class="b" d="M74.88,535.63v-6.4c3.2-.19,5.5-.87,6.91-2.04,1.4-1.16,2.3-2.91,2.69-5.24,.39-2.33,.58-5.28,.58-8.87v-60.49c0-2.13,.05-4.19,.15-6.18,.1-1.99,.19-3.71,.29-5.16-1.65,.1-3.44,.2-5.38,.29-1.94,.1-3.69,.2-5.23,.29v-8h69.22l.87,26.32h-6.4c0-5.53-.92-9.74-2.76-12.65-1.84-2.91-4.22-4.85-7.13-5.82-2.91-.97-6.06-1.4-9.45-1.31l-8.72,.29c-3.1,0-5.36,.63-6.76,1.89-1.41,1.26-2.3,3.05-2.69,5.38-.39,2.33-.58,5.29-.58,8.87v25.01l21.96,.15-.87-12.65h8v32.28h-6.4c0-4.26-.61-7.32-1.82-9.16-1.21-1.84-3.03-2.96-5.45-3.34-2.42-.39-5.43-.53-9.02-.44l-6.4,.29v27.19c0,2.62-.03,4.97-.07,7.05-.05,2.09-.17,3.76-.36,5.02,1.45-.1,3.03-.17,4.73-.22,1.7-.05,3.37-.12,5.02-.22,1.65-.1,3.15-.15,4.51-.15v8h-39.41Z"/><path class="b" d="M176.4,537.96c-6.88,0-13.09-1.55-18.61-4.65-5.53-3.1-9.91-7.44-13.16-13.01-3.25-5.57-4.87-12-4.87-19.27,0-7.85,1.62-14.81,4.87-20.87,3.25-6.06,7.63-10.83,13.16-14.32,5.53-3.49,11.68-5.24,18.47-5.24s13.09,1.58,18.61,4.73c5.53,3.15,9.91,7.51,13.16,13.09,3.25,5.58,4.87,12,4.87,19.27,0,7.66-1.6,14.54-4.8,20.65-3.2,6.11-7.54,10.91-13.01,14.4-5.48,3.49-11.71,5.24-18.69,5.24Zm1.02-7.27c4.65-.1,8.31-1.55,10.98-4.36,2.67-2.81,4.58-6.42,5.74-10.83,1.16-4.41,1.75-8.99,1.75-13.74,0-4.17-.36-8.26-1.09-12.29-.73-4.02-1.87-7.68-3.42-10.98-1.55-3.29-3.59-5.94-6.11-7.93-2.52-1.99-5.58-2.93-9.16-2.84-4.56,0-8.27,1.41-11.12,4.22-2.86,2.81-4.94,6.42-6.25,10.83-1.31,4.41-1.96,9.09-1.96,14.03,0,5.72,.73,11.15,2.18,16.29,1.45,5.14,3.71,9.36,6.76,12.65,3.05,3.3,6.95,4.94,11.71,4.94Z"/><path class="b" d="M247.28,537.96c-5.43,0-9.91-1.02-13.45-3.05-3.54-2.04-6.18-5.4-7.93-10.11-1.74-4.7-2.62-10.93-2.62-18.69v-22.83c0-1.65,.02-3.37,.07-5.16,.05-1.79,.22-3.56,.51-5.31-1.65,.1-3.39,.17-5.23,.22-1.84,.05-3.49,.12-4.94,.22v-7.71h3.49c4.85,0,8.48-.44,10.91-1.31,2.42-.87,4.12-1.79,5.09-2.76h5.53v44.35c0,7.66,1.07,13.38,3.2,17.16,2.13,3.78,5.72,5.62,10.76,5.53,3.29,0,6.47-.97,9.52-2.91,3.05-1.94,5.55-4.22,7.49-6.83v-34.46c0-2.13,.05-4.14,.15-6.03,.1-1.89,.29-3.71,.58-5.45-1.74,.1-3.54,.17-5.38,.22-1.84,.05-3.54,.12-5.09,.22v-7.71h4.22c4.26,0,7.61-.44,10.03-1.31,2.42-.87,4.17-1.79,5.23-2.76h5.53l-.15,53.51c0,1.55-.05,3.66-.15,6.33-.1,2.67-.24,5.02-.44,7.05,1.65-.1,3.37-.19,5.16-.29,1.79-.1,3.46-.15,5.02-.15v7.71h-23.12c-.2-1.55-.36-3-.51-4.36-.15-1.36-.32-2.66-.51-3.93-3.01,2.81-6.5,5.28-10.47,7.42-3.98,2.13-8.14,3.2-12.51,3.2Z"/><path class="b" d="M302.37,535.63v-6.11c2.91,0,4.94-.68,6.11-2.04,1.16-1.36,1.87-3.25,2.11-5.67,.24-2.42,.36-5.24,.36-8.43l.15-30.25c0-1.55,.02-3.22,.07-5.02,.05-1.79,.22-3.56,.51-5.31-1.75,.1-3.52,.17-5.31,.22-1.79,.05-3.47,.12-5.02,.22v-7.71c4.36,0,7.78-.22,10.25-.65,2.47-.44,4.36-.94,5.67-1.53,1.31-.58,2.3-1.21,2.98-1.89h5.23c.1,.87,.17,1.7,.22,2.47,.05,.78,.1,1.6,.15,2.47,.05,.87,.12,1.99,.22,3.34,2.13-1.75,4.46-3.29,6.98-4.65,2.52-1.36,5.16-2.45,7.93-3.27,2.76-.82,5.4-1.24,7.93-1.24,8.63,0,14.85,2.62,18.69,7.85,3.83,5.24,5.74,13.43,5.74,24.58v24.58c0,1.74-.05,3.51-.15,5.31-.1,1.79-.24,3.61-.44,5.45,1.55-.1,3.13-.17,4.73-.22,1.6-.05,3.08-.12,4.43-.22v7.71h-32.43v-6.11c2.91,0,4.94-.68,6.11-2.04,1.16-1.36,1.87-3.25,2.11-5.67,.24-2.42,.36-5.24,.36-8.43v-20.36c-.1-7.66-1.33-13.43-3.71-17.3-2.38-3.88-6.18-5.77-11.42-5.67-3.1,0-6.16,.78-9.16,2.33-3.01,1.55-5.53,3.44-7.56,5.67v39.55c0,1.74-.05,3.51-.15,5.31-.1,1.79-.24,3.61-.44,5.45,1.55-.1,3.13-.17,4.73-.22,1.6-.05,3.08-.12,4.44-.22v7.71h-32.43Z"/><path class="b" d="M416.17,537.96c-5.91,0-11.17-1.48-15.78-4.44-4.61-2.96-8.24-7.2-10.91-12.72-2.67-5.53-4-12.02-4-19.49,0-7.95,1.55-14.98,4.65-21.09,3.1-6.11,7.46-10.91,13.09-14.4,5.62-3.49,12.02-5.24,19.19-5.24,3,0,5.89,.36,8.65,1.09,2.76,.73,5.06,1.58,6.91,2.54v-16.58c0-1.45,.05-3.08,.15-4.87,.1-1.79,.24-3.66,.44-5.6-1.75,.1-3.54,.19-5.38,.29-1.84,.1-3.49,.15-4.94,.15v-7.71c4.36,0,7.83-.22,10.4-.65,2.57-.44,4.56-.95,5.96-1.53,1.4-.58,2.45-1.21,3.13-1.89h5.38v91.76c0,1.45-.05,3.1-.15,4.94-.1,1.84-.24,3.78-.44,5.82,1.75-.1,3.49-.19,5.23-.29,1.75-.1,3.34-.15,4.8-.15v7.71h-23.12c-.2-1.36-.36-2.62-.51-3.78-.15-1.16-.27-2.33-.36-3.49-2.91,3.1-6.25,5.48-10.03,7.13-3.78,1.65-7.9,2.47-12.36,2.47Zm5.96-9.16c3,0,5.94-.82,8.8-2.47,2.86-1.65,5.21-3.73,7.05-6.25v-47.84c-1.84-1.36-4-2.4-6.47-3.13-2.47-.73-5.02-1.09-7.63-1.09-4.75,0-8.75,1.38-12,4.14-3.25,2.76-5.65,6.52-7.2,11.27-1.55,4.75-2.28,10.18-2.18,16.29,.19,5.24,1.02,10.08,2.47,14.54,1.45,4.46,3.61,8,6.47,10.61,2.86,2.62,6.42,3.93,10.69,3.93Z"/><path class="b" d="M513.09,535.63c-.2-1.55-.34-2.91-.44-4.07-.1-1.16-.24-2.37-.44-3.64-3.3,3.3-6.83,5.79-10.62,7.49-3.78,1.69-7.71,2.55-11.78,2.55-6.98,0-12.24-1.72-15.78-5.16-3.54-3.44-5.31-7.73-5.31-12.87,0-4.46,1.31-8.34,3.93-11.63,2.62-3.29,6.06-5.98,10.32-8.07,4.26-2.08,8.92-3.64,13.96-4.65,5.04-1.02,9.98-1.53,14.83-1.53v-8.58c0-3.1-.29-5.99-.87-8.65-.58-2.67-1.77-4.85-3.56-6.54-1.79-1.69-4.58-2.54-8.36-2.54-2.52-.1-5.04,.36-7.56,1.38-2.52,1.02-4.46,2.69-5.82,5.02,.77,.78,1.28,1.67,1.53,2.69,.24,1.02,.36,1.96,.36,2.84,0,1.36-.58,2.89-1.75,4.58-1.16,1.7-3.15,2.5-5.96,2.4-2.33,0-4.1-.8-5.31-2.4-1.21-1.6-1.82-3.46-1.82-5.6,0-3.49,1.28-6.59,3.85-9.31,2.57-2.71,6.08-4.85,10.54-6.4,4.46-1.55,9.45-2.33,14.98-2.33,8.34,0,14.56,2.18,18.69,6.54,4.12,4.36,6.18,11.25,6.18,20.65v10.03c0,3.2-.03,6.4-.07,9.6-.05,3.2-.07,6.59-.07,10.18,0,1.45-.05,3.1-.15,4.94-.1,1.84-.24,3.78-.44,5.82,1.65-.1,3.34-.19,5.09-.29,1.74-.1,3.39-.15,4.94-.15v7.71h-23.12Zm-1.31-34.9c-3.1,.2-6.28,.63-9.52,1.31-3.25,.68-6.18,1.7-8.8,3.05-2.62,1.36-4.73,3.1-6.33,5.24-1.6,2.13-2.4,4.7-2.4,7.71,.19,3.3,1.28,5.72,3.27,7.27,1.99,1.55,4.34,2.33,7.05,2.33,3.39,0,6.4-.65,9.02-1.96,2.62-1.31,5.18-3.13,7.71-5.45-.1-1.07-.15-2.16-.15-3.27v-3.56c0-.87,.02-2.5,.07-4.87,.05-2.37,.07-4.97,.07-7.78Z"/><path class="b" d="M565.59,537.96c-2.42,0-4.85-.32-7.27-.95-2.42-.63-4.68-1.89-6.76-3.78-2.09-1.89-3.71-4.63-4.87-8.22-1.16-3.59-1.75-8.34-1.75-14.25l.29-39.7h-10.76v-8.14c2.62-.1,5.28-1.07,8-2.91,2.71-1.84,5.09-4.31,7.13-7.42,2.04-3.1,3.44-6.45,4.22-10.03h6.83v20.36h22.39v7.56l-22.39,.29-.29,38.83c0,3.69,.31,6.91,.95,9.67,.63,2.76,1.7,4.9,3.2,6.4,1.5,1.5,3.56,2.25,6.18,2.25,2.23,0,4.53-.68,6.91-2.04,2.37-1.36,4.63-3.59,6.76-6.69l4.94,4.36c-2.33,3.39-4.65,6.06-6.98,8-2.33,1.94-4.56,3.37-6.69,4.29-2.13,.92-4.07,1.5-5.82,1.75-1.75,.24-3.15,.36-4.22,.36Z"/><path class="b" d="M596.06,529.53c2.91,0,4.94-.68,6.11-2.04,1.16-1.36,1.87-3.25,2.11-5.67,.24-2.42,.36-5.24,.36-8.43v-30.1c0-1.65,.05-3.32,.15-5.02,.1-1.7,.24-3.51,.44-5.45-1.65,.1-3.39,.17-5.23,.22-1.84,.05-3.54,.12-5.09,.22v-7.71c4.36,0,7.83-.22,10.4-.65,2.57-.44,4.56-.94,5.96-1.53,1.4-.58,2.45-1.21,3.13-1.89h5.53v56.13c0,1.74-.05,3.51-.15,5.31-.1,1.79-.24,3.61-.44,5.45,1.55-.1,3.13-.17,4.73-.22,1.6-.05,3.08-.12,4.44-.22v7.71h-32.43v-6.11Z"/><path class="b" d="M669,537.96c-6.88,0-13.09-1.55-18.61-4.65-5.53-3.1-9.91-7.44-13.16-13.01-3.25-5.57-4.87-12-4.87-19.27,0-7.85,1.62-14.81,4.87-20.87,3.25-6.06,7.63-10.83,13.16-14.32,5.53-3.49,11.68-5.24,18.47-5.24s13.09,1.58,18.61,4.73c5.53,3.15,9.91,7.51,13.16,13.09,3.25,5.58,4.87,12,4.87,19.27,0,7.66-1.6,14.54-4.8,20.65-3.2,6.11-7.54,10.91-13.01,14.4-5.48,3.49-11.71,5.24-18.69,5.24Zm1.02-7.27c4.65-.1,8.31-1.55,10.98-4.36,2.67-2.81,4.58-6.42,5.74-10.83,1.16-4.41,1.75-8.99,1.75-13.74,0-4.17-.36-8.26-1.09-12.29-.73-4.02-1.87-7.68-3.42-10.98-1.55-3.29-3.59-5.94-6.11-7.93-2.52-1.99-5.58-2.93-9.16-2.84-4.56,0-8.27,1.41-11.12,4.22-2.86,2.81-4.94,6.42-6.25,10.83-1.31,4.41-1.96,9.09-1.96,14.03,0,5.72,.73,11.15,2.18,16.29,1.45,5.14,3.71,9.36,6.76,12.65,3.05,3.3,6.95,4.94,11.71,4.94Z"/><path class="b" d="M711.64,535.63v-6.11c2.91,0,4.94-.68,6.11-2.04,1.16-1.36,1.87-3.25,2.11-5.67,.24-2.42,.36-5.24,.36-8.43l.15-30.25c0-1.55,.02-3.22,.07-5.02,.05-1.79,.22-3.56,.51-5.31-1.75,.1-3.52,.17-5.31,.22-1.79,.05-3.47,.12-5.02,.22v-7.71c4.36,0,7.78-.22,10.25-.65,2.47-.44,4.36-.94,5.67-1.53,1.31-.58,2.3-1.21,2.98-1.89h5.24c.1,.87,.17,1.7,.22,2.47,.05,.78,.1,1.6,.15,2.47,.05,.87,.12,1.99,.22,3.34,2.13-1.75,4.46-3.29,6.98-4.65,2.52-1.36,5.16-2.45,7.93-3.27,2.76-.82,5.4-1.24,7.93-1.24,8.63,0,14.85,2.62,18.69,7.85,3.83,5.24,5.74,13.43,5.74,24.58v24.58c0,1.74-.05,3.51-.15,5.31-.1,1.79-.24,3.61-.44,5.45,1.55-.1,3.13-.17,4.73-.22,1.6-.05,3.08-.12,4.44-.22v7.71h-32.43v-6.11c2.91,0,4.94-.68,6.11-2.04,1.16-1.36,1.87-3.25,2.11-5.67,.24-2.42,.36-5.24,.36-8.43v-20.36c-.1-7.66-1.33-13.43-3.71-17.3-2.38-3.88-6.18-5.77-11.41-5.67-3.1,0-6.16,.78-9.16,2.33-3.01,1.55-5.53,3.44-7.56,5.67v39.55c0,1.74-.05,3.51-.15,5.31-.1,1.79-.24,3.61-.44,5.45,1.55-.1,3.13-.17,4.73-.22,1.6-.05,3.08-.12,4.43-.22v7.71h-32.43Z"/></g><path class="b" d="M611.62,451.91c-2.52,0-4.65-.94-6.4-2.84-1.74-1.89-2.62-4.19-2.62-6.91s.92-5.02,2.76-6.91c1.84-1.89,3.93-2.84,6.25-2.84,2.52,0,4.63,.95,6.33,2.84,1.69,1.89,2.54,4.19,2.54,6.91s-.85,5.02-2.54,6.91c-1.7,1.89-3.81,2.84-6.33,2.84Z"/></g></g><path class="b" d="M69.55,167.1c0-2.36-.56-4.59-1.52-6.58,1.73,.69,3.62,1.08,5.59,1.08,8.37,0,15.18-6.81,15.18-15.18,0-2.21-.49-4.31-1.34-6.2,1.84,.8,3.87,1.24,6,1.24,7.84,0,14.31-5.98,15.1-13.62,2.79,3.24,6.91,5.31,11.51,5.31,7.64,0,13.96-5.67,15.01-13.03,.98,5.19,5.54,9.13,11.01,9.13,6.18,0,11.22-5.03,11.22-11.22s-5.03-11.22-11.22-11.22c-5.45,0-10,3.91-11,9.06-1.02-7.38-7.36-13.09-15.02-13.09s-14.31,5.98-15.1,13.62c-2.79-3.24-6.91-5.31-11.51-5.31-8.37,0-15.18,6.81-15.18,15.18,0,2.21,.49,4.31,1.34,6.2-1.84-.8-3.87-1.24-6-1.24-8.37,0-15.18,6.81-15.18,15.18,0,2.36,.56,4.59,1.52,6.58-1.73-.69-3.62-1.08-5.59-1.08-8.16,0-14.82,6.48-15.15,14.56-2.72-2.54-6.35-4.11-10.36-4.11-7.68,0-14.02,5.73-15.03,13.14-.88-2.91-3.58-5.03-6.77-5.03-3.9,0-7.07,3.17-7.07,7.07s3.17,7.07,7.07,7.07c3.19,0,5.89-2.13,6.77-5.03,1,7.41,7.35,13.14,15.03,13.14,4.54,0,8.6-2.01,11.39-5.18-.84,1.55-1.32,3.32-1.32,5.21,0,6.03,4.91,10.94,10.94,10.94s10.94-4.91,10.94-10.94c0-5.11-3.52-9.39-8.26-10.59,.59,.07,1.19,.12,1.8,.12,8.37,0,15.18-6.81,15.18-15.18Zm-19.67,14.71c-3.15,0-5.98,1.34-7.98,3.48,1.25-2.1,2.01-4.53,2.12-7.13,1.91,1.79,4.27,3.08,6.9,3.7-.34-.03-.69-.05-1.03-.05Z"/><path class="b" d="M178.82,137.46c6.18,0,11.22-5.03,11.22-11.22s-5.03-11.22-11.22-11.22-11.22,5.03-11.22,11.22,5.03,11.22,11.22,11.22Z"/><path class="b" d="M119.47,157.65c-6.18,0-11.22,5.03-11.22,11.22s5.03,11.22,11.22,11.22,11.22-5.03,11.22-11.22-5.03-11.22-11.22-11.22Z"/><circle class="b" cx="215.72" cy="111.29" r="11.22"/><path class="b" d="M94.55,230.33c0,6.18,5.03,11.21,11.22,11.21s11.22-5.03,11.22-11.21-5.03-11.22-11.22-11.22-11.22,5.03-11.22,11.22Z"/><path class="b" d="M82.78,214.83c-1.15,1.26-1.85,2.92-1.85,4.76,0,3.9,3.17,7.07,7.07,7.07s7.07-3.17,7.07-7.07-3.17-7.07-7.07-7.07c-1.27,0-2.47,.34-3.5,.94,2.08-2.04,3.37-4.87,3.37-8,0-6.18-5.03-11.22-11.22-11.22s-11.22,5.03-11.22,11.22,5.03,11.22,11.22,11.22c2.26,0,4.36-.68,6.13-1.83Z"/><path class="b" d="M207.82,149.82c3.9,0,7.07-3.17,7.07-7.07s-3.17-7.07-7.07-7.07-7.07,3.17-7.07,7.07,3.17,7.07,7.07,7.07Z"/><path class="b" d="M240.08,96.36c-3.9,0-7.07,3.17-7.07,7.07s3.17,7.07,7.07,7.07,7.07-3.17,7.07-7.07-3.17-7.07-7.07-7.07Z"/><path class="b" d="M142.97,270.27c0-3.9-3.17-7.07-7.07-7.07s-7.07,3.17-7.07,7.07,3.17,7.07,7.07,7.07,7.07-3.17,7.07-7.07Z"/><path class="b" d="M238.28,67.38c3.9,0,7.07-3.17,7.07-7.07s-3.17-7.07-7.07-7.07-7.07,3.17-7.07,7.07,3.17,7.07,7.07,7.07Z"/><circle class="b" cx="121.8" cy="242.43" r="7.07"/><path class="b" d="M221.66,159.58c0,3.9,3.17,7.07,7.07,7.07s7.07-3.17,7.07-7.07-3.17-7.07-7.07-7.07-7.07,3.17-7.07,7.07Z"/><circle class="b" cx="839.12" cy="30.05" r="15.19"/><path class="b" d="M850.54,14.16c3.9,0,7.08-3.17,7.08-7.08s-3.17-7.08-7.08-7.08-7.08,3.17-7.08,7.08,3.17,7.08,7.08,7.08Z"/></svg>