<svg id="Layer_1" data-name="Layer 1" xmlns="http://www.w3.org/2000/svg" viewBox="0 0 949.41 389.48"><defs><style>.cls-1{fill:none;}.cls-2{fill:#213a8f;}.cls-3{fill:#f9b233;}.cls-4{fill:#18b0bf;}</style></defs><rect class="cls-1" width="949.41" height="389.48"/><path class="cls-2" d="M525.82,388.12a9.26,9.26,0,0,0-3.6-7.84q-3.6-2.73-13-5.76a92,92,0,0,1-14.83-6q-14.9-8.06-14.89-21.68a21.15,21.15,0,0,1,4-12.64A26.06,26.06,0,0,1,495,325.56a43.18,43.18,0,0,1,16.78-3.12,39.28,39.28,0,0,1,16.69,3.39,26.53,26.53,0,0,1,11.38,9.57,25.1,25.1,0,0,1,4,14.05h-18q0-6-3.78-9.33t-10.63-3.34q-6.6,0-10.27,2.8a8.8,8.8,0,0,0-3.66,7.35q0,4.26,4.3,7.15t12.63,5.4q15.38,4.62,22.4,11.47a22.83,22.83,0,0,1,7,17.05q0,11.34-8.58,17.8t-23.12,6.45a44.65,44.65,0,0,1-18.37-3.69,29.08,29.08,0,0,1-12.64-10.11,26,26,0,0,1-4.35-14.89H494.9q0,14.46,17.29,14.47,6.42,0,10-2.62A8.49,8.49,0,0,0,525.82,388.12Z" transform="translate(-190.25 -210.04)"/><path class="cls-2" d="M592.59,411.05a19,19,0,0,1-1.75-5.82q-6.3,7-16.39,7-9.54,0-15.82-5.52a17.76,17.76,0,0,1-6.27-13.93q0-10.32,7.65-15.85t22.13-5.58h8v-3.72a10.71,10.71,0,0,0-2.31-7.21q-2.31-2.7-7.29-2.7a10.36,10.36,0,0,0-6.88,2.1,7.13,7.13,0,0,0-2.49,5.76H553.8a17.42,17.42,0,0,1,3.48-10.44,23,23,0,0,1,9.85-7.54,35.88,35.88,0,0,1,14.29-2.73q12,0,19.06,6t7.06,17V396q.06,9.25,2.58,14v1ZM578.24,399a14.83,14.83,0,0,0,7.08-1.72,11.23,11.23,0,0,0,4.8-4.59V381.51h-6.48q-13,0-13.87,9l-.06,1a6.94,6.94,0,0,0,2.28,5.34A8.82,8.82,0,0,0,578.24,399Z" transform="translate(-190.25 -210.04)"/><path class="cls-2" d="M636.83,346.09l.55,7.51q7-8.72,18.67-8.71,10.32,0,15.37,6.06t5.16,18.14v42H659.23V369.51q0-5.53-2.4-8t-8-2.49a11.93,11.93,0,0,0-11,6.24v45.81H620.5v-65Z" transform="translate(-190.25 -210.04)"/><path class="cls-2" d="M716.75,398.27a11.38,11.38,0,0,0,7.8-2.65,9.25,9.25,0,0,0,3.12-7H744a22.31,22.31,0,0,1-3.61,12.1,23.75,23.75,0,0,1-9.69,8.52,30.4,30.4,0,0,1-13.6,3q-13.93,0-22-8.85t-8-24.47v-1.14q0-15,8-24t21.92-8.95q12.18,0,19.54,6.93T744,370.29H727.67a11.93,11.93,0,0,0-3.12-8.24,10.37,10.37,0,0,0-7.92-3.17q-6.07,0-9.16,4.42c-2.06,2.94-3.09,7.73-3.09,14.34v1.8q0,10.05,3.06,14.44T716.75,398.27Z" transform="translate(-190.25 -210.04)"/><path class="cls-2" d="M774.63,330.12v16h11.1v12.73h-11.1v32.42q0,3.6,1.38,5.16c.92,1,2.68,1.57,5.28,1.57a26.75,26.75,0,0,0,5.1-.43v13.15a35.7,35.7,0,0,1-10.5,1.56q-18.25,0-18.62-18.43v-35h-9.48V346.09h9.48v-16Z" transform="translate(-190.25 -210.04)"/><path class="cls-2" d="M834.31,404.45q-6.43,7.8-17.78,7.8-10.44,0-15.94-6T795,388.66V346.09h17.35v42q0,10.15,9.25,10.16,8.82,0,12.13-6.14v-46h17.41v65H834.79Z" transform="translate(-190.25 -210.04)"/><path class="cls-2" d="M901.85,411.05a19.26,19.26,0,0,1-1.74-5.82q-6.3,7-16.39,7-9.56,0-15.82-5.52a17.77,17.77,0,0,1-6.28-13.93q0-10.32,7.66-15.85t22.12-5.58h8v-3.72a10.71,10.71,0,0,0-2.31-7.21c-1.54-1.8-4-2.7-7.3-2.7a10.33,10.33,0,0,0-6.87,2.1,7.13,7.13,0,0,0-2.49,5.76H863.06a17.43,17.43,0,0,1,3.49-10.44,22.94,22.94,0,0,1,9.84-7.54,36,36,0,0,1,14.29-2.73q12,0,19.07,6t7,17V396q.06,9.25,2.58,14v1ZM887.5,399a14.89,14.89,0,0,0,7.09-1.72,11.23,11.23,0,0,0,4.8-4.59V381.51H892.9q-13,0-13.86,9l-.06,1a6.94,6.94,0,0,0,2.28,5.34A8.82,8.82,0,0,0,887.5,399Z" transform="translate(-190.25 -210.04)"/><path class="cls-2" d="M966.63,362.36a47.11,47.11,0,0,0-6.24-.48q-9.85,0-12.91,6.67v42.5H930.13v-65h16.39l.48,7.75q5.22-9,14.47-8.95a18.17,18.17,0,0,1,5.4.78Z" transform="translate(-190.25 -210.04)"/><path class="cls-2" d="M1000.32,386.5l12-40.41h18.62l-26.12,75.05-1.44,3.42q-5.82,12.74-19.21,12.73a27.3,27.3,0,0,1-7.69-1.14V423l2.64.06c3.28,0,5.74-.5,7.36-1.5a9.85,9.85,0,0,0,3.81-5l2-5.35-22.75-65.14h18.67Z" transform="translate(-190.25 -210.04)"/><path class="cls-3" d="M529.42,506.4H494.84v35.72h-18V454.71h56.92V469.3H494.84v22.57h34.58Z" transform="translate(-190.25 -210.04)"/><path class="cls-3" d="M539.09,509a38.54,38.54,0,0,1,3.72-17.23,27.28,27.28,0,0,1,10.72-11.71A31.28,31.28,0,0,1,569.77,476q13.15,0,21.46,8.05t9.28,21.85l.12,4.44q0,15-8.34,24t-22.4,9q-14.05,0-22.42-9t-8.38-24.5Zm17.35,1.23q0,9.27,3.48,14.16a12.5,12.5,0,0,0,19.82.06q3.54-4.83,3.54-15.48,0-9.08-3.54-14.07a11.54,11.54,0,0,0-10-5,11.36,11.36,0,0,0-9.85,5Q556.44,499.88,556.44,510.27Z" transform="translate(-190.25 -210.04)"/><path class="cls-3" d="M650.22,535.52q-6.42,7.8-17.77,7.8-10.44,0-15.94-6t-5.61-17.59V477.16h17.35v42q0,10.16,9.25,10.16,8.82,0,12.12-6.14v-46H667v65H650.7Z" transform="translate(-190.25 -210.04)"/><path class="cls-3" d="M696.09,477.16l.54,7.51q7-8.71,18.68-8.71,10.32,0,15.37,6.06t5.16,18.14v42H718.49V500.58q0-5.54-2.4-8c-1.6-1.66-4.27-2.49-8-2.49a12,12,0,0,0-11,6.24v45.81H679.76v-65Z" transform="translate(-190.25 -210.04)"/><path class="cls-3" d="M746.29,509.16q0-15.18,6.81-24.19t18.64-9A19.89,19.89,0,0,1,787.41,483V449.9h17.42v92.22H789.16l-.84-6.9a20.44,20.44,0,0,1-16.7,8.1,22.06,22.06,0,0,1-18.4-9Q746.29,525.25,746.29,509.16Zm17.35,1.29q0,9.15,3.18,14a10.36,10.36,0,0,0,9.25,4.88q8,0,11.34-6.8V496.86q-3.24-6.78-11.22-6.79Q763.64,490.07,763.64,510.45Z" transform="translate(-190.25 -210.04)"/><path class="cls-3" d="M855.92,542.12a19.26,19.26,0,0,1-1.74-5.82q-6.3,7-16.39,7-9.56,0-15.82-5.52a17.74,17.74,0,0,1-6.28-13.93q0-10.32,7.66-15.85t22.12-5.58h8v-3.72a10.71,10.71,0,0,0-2.31-7.21c-1.54-1.8-4-2.7-7.3-2.7a10.33,10.33,0,0,0-6.87,2.1,7.13,7.13,0,0,0-2.49,5.76H817.13a17.43,17.43,0,0,1,3.49-10.44,22.94,22.94,0,0,1,9.84-7.54A36,36,0,0,1,844.75,476q12,0,19.07,6t7,17v28.15q.06,9.25,2.58,14v1Zm-14.35-12.06a14.89,14.89,0,0,0,7.09-1.72,11.23,11.23,0,0,0,4.8-4.59V512.58H847q-13,0-13.87,9l-.06,1a7,7,0,0,0,2.29,5.34A8.82,8.82,0,0,0,841.57,530.06Z" transform="translate(-190.25 -210.04)"/><path class="cls-3" d="M905,461.19v16h11.11v12.73H905v32.42q0,3.6,1.38,5.16c.92,1,2.69,1.57,5.29,1.57a27.65,27.65,0,0,0,5.1-.42v13.14a35.71,35.71,0,0,1-10.51,1.56q-18.24,0-18.61-18.43v-35h-9.49V477.16h9.49v-16Z" transform="translate(-190.25 -210.04)"/><path class="cls-3" d="M925.63,460.35a8.54,8.54,0,0,1,2.61-6.42,11.23,11.23,0,0,1,14.2,0,9.16,9.16,0,0,1,0,12.9,11.1,11.1,0,0,1-14.11,0A8.51,8.51,0,0,1,925.63,460.35Zm18.43,81.77H926.65v-65h17.41Z" transform="translate(-190.25 -210.04)"/><path class="cls-3" d="M955.65,509a38.54,38.54,0,0,1,3.72-17.23,27.22,27.22,0,0,1,10.72-11.71A31.26,31.26,0,0,1,986.33,476q13.14,0,21.46,8.05t9.28,21.85l.12,4.44q0,15-8.35,24t-22.39,9q-14.06,0-22.43-9t-8.37-24.5ZM973,510.27q0,9.27,3.48,14.16a12.49,12.49,0,0,0,19.81.06q3.54-4.83,3.55-15.48,0-9.08-3.55-14.07a11.52,11.52,0,0,0-10-5,11.34,11.34,0,0,0-9.85,5Q973,499.88,973,510.27Z" transform="translate(-190.25 -210.04)"/><path class="cls-3" d="M1043.84,477.16l.55,7.51q7-8.71,18.67-8.71,10.32,0,15.37,6.06t5.16,18.14v42h-17.35V500.58q0-5.54-2.4-8t-8-2.49a11.93,11.93,0,0,0-11,6.24v45.81h-17.36v-65Z" transform="translate(-190.25 -210.04)"/><path class="cls-2" d="M280.86,357c-53.51,26.87-59.22,126.64,88.28,186.49C412.52,387.7,334.36,330.06,280.86,357Z" transform="translate(-190.25 -210.04)"/><path class="cls-3" d="M405.79,378.79c47.41,10.12,70.15,87.54-36.65,164.62C306.76,430.18,358.36,368.65,405.79,378.79Z" transform="translate(-190.25 -210.04)"/><path class="cls-2" d="M342.57,301.18a35.07,35.07,0,1,1-35.07-35.07A35.07,35.07,0,0,1,342.57,301.18Z" transform="translate(-190.25 -210.04)"/><path class="cls-3" d="M424.22,331.32a25.47,25.47,0,1,1-25.46-25.47A25.46,25.46,0,0,1,424.22,331.32Z" transform="translate(-190.25 -210.04)"/><path class="cls-4" d="M365.42,388.34c-27.67,21.63-40.07,75.59,3.72,155.07h0C389.34,470.9,383.17,419.68,365.42,388.34Z" transform="translate(-190.25 -210.04)"/></svg>