<svg xmlns="http://www.w3.org/2000/svg" viewBox="0 0 525.26 215.48"><defs><style>.cls-1{fill:none;}.cls-2{fill:#fff;}.cls-3{fill:#fff;}.cls-4{fill:#fff;}</style></defs><g id="Layer_2" data-name="Layer 2"><g id="Layer_1-2" data-name="Layer 1"><rect class="cls-1" width="525.26" height="215.48"/><path class="cls-2" d="M185.65,98.52a5.1,5.1,0,0,0-2-4.33A26.15,26.15,0,0,0,176.49,91a50.59,50.59,0,0,1-8.21-3.31Q160,83.25,160,75.7a11.7,11.7,0,0,1,2.21-7,14.43,14.43,0,0,1,6.35-4.8,23.87,23.87,0,0,1,9.28-1.73,21.79,21.79,0,0,1,9.24,1.88,14.67,14.67,0,0,1,6.29,5.3,13.81,13.81,0,0,1,2.24,7.77h-10A6.52,6.52,0,0,0,183.6,72a8.62,8.62,0,0,0-5.88-1.85A9.18,9.18,0,0,0,172,71.67a4.84,4.84,0,0,0-2,4.07,4.66,4.66,0,0,0,2.37,4,27.07,27.07,0,0,0,7,3q8.51,2.55,12.39,6.34a12.65,12.65,0,0,1,3.88,9.44,11.62,11.62,0,0,1-4.75,9.84q-4.74,3.58-12.79,3.58a24.72,24.72,0,0,1-10.16-2,16,16,0,0,1-7-5.59A14.31,14.31,0,0,1,158.55,96h10q0,8,9.56,8a9.34,9.34,0,0,0,5.55-1.44A4.71,4.71,0,0,0,185.65,98.52Z"/><path class="cls-2" d="M222.59,111.21a10.76,10.76,0,0,1-1-3.22,11.63,11.63,0,0,1-9.07,3.89,12.74,12.74,0,0,1-8.75-3.06,9.82,9.82,0,0,1-3.47-7.71,10.16,10.16,0,0,1,4.23-8.77c2.82-2,6.91-3.06,12.24-3.09h4.42v-2a5.94,5.94,0,0,0-1.28-4,5,5,0,0,0-4-1.5,5.71,5.71,0,0,0-3.81,1.17,3.94,3.94,0,0,0-1.38,3.19h-9.6a9.65,9.65,0,0,1,1.93-5.78,12.66,12.66,0,0,1,5.45-4.17,19.77,19.77,0,0,1,7.9-1.51q6.65,0,10.55,3.33t3.9,9.39v15.58q0,5.11,1.43,7.74v.56Zm-7.94-6.68a8.25,8.25,0,0,0,3.92-.94,6.23,6.23,0,0,0,2.66-2.54V94.87h-3.59q-7.2,0-7.67,5l0,.57a3.83,3.83,0,0,0,1.26,3A4.87,4.87,0,0,0,214.65,104.53Z"/><path class="cls-2" d="M247.07,75.27l.3,4.15a12.54,12.54,0,0,1,10.33-4.81c3.81,0,6.65,1.11,8.51,3.35s2.81,5.58,2.85,10v23.22h-9.6v-23a6.22,6.22,0,0,0-1.33-4.44q-1.32-1.38-4.41-1.38a6.59,6.59,0,0,0-6.08,3.46v25.34H238V75.27Z"/><path class="cls-2" d="M291.28,104.14a6.27,6.27,0,0,0,4.32-1.47,5.12,5.12,0,0,0,1.73-3.88h9a12.34,12.34,0,0,1-2,6.69A13.18,13.18,0,0,1,299,110.2a16.74,16.74,0,0,1-7.52,1.68q-7.71,0-12.16-4.9t-4.45-13.54v-.63q0-8.31,4.42-13.25c2.94-3.3,7-5,12.12-5q6.75,0,10.82,3.83a13.59,13.59,0,0,1,4.13,10.22h-9a6.62,6.62,0,0,0-1.73-4.56,6.43,6.43,0,0,0-9.45.69q-1.71,2.44-1.71,7.94v1q0,5.57,1.7,8A5.83,5.83,0,0,0,291.28,104.14Z"/><path class="cls-2" d="M323.3,66.44v8.83h6.15v7H323.3v17.94a4.29,4.29,0,0,0,.77,2.86A3.85,3.85,0,0,0,327,104a15.88,15.88,0,0,0,2.83-.23V111a19.68,19.68,0,0,1-5.82.87q-10.1,0-10.29-10.2V82.31h-5.25v-7h5.25V66.44Z"/><path class="cls-2" d="M356.32,107.56a12,12,0,0,1-9.83,4.32q-5.78,0-8.82-3.33t-3.1-9.73V75.27h9.59V98.52c0,3.74,1.71,5.62,5.12,5.62s5.49-1.13,6.71-3.4V75.27h9.63v35.94h-9Z"/><path class="cls-2" d="M393.69,111.21a10.76,10.76,0,0,1-1-3.22,11.63,11.63,0,0,1-9.07,3.89,12.74,12.74,0,0,1-8.75-3.06,9.82,9.82,0,0,1-3.47-7.71,10.16,10.16,0,0,1,4.23-8.77q4.23-3,12.24-3.09h4.42v-2a5.94,5.94,0,0,0-1.28-4,5,5,0,0,0-4-1.5,5.7,5.7,0,0,0-3.8,1.17,3.94,3.94,0,0,0-1.38,3.19h-9.6a9.65,9.65,0,0,1,1.93-5.78,12.66,12.66,0,0,1,5.45-4.17,19.77,19.77,0,0,1,7.9-1.51q6.64,0,10.55,3.33t3.9,9.39v15.58q0,5.11,1.43,7.74v.56Zm-7.94-6.68a8.25,8.25,0,0,0,3.92-.94,6.23,6.23,0,0,0,2.66-2.54V94.87h-3.59q-7.2,0-7.67,5l0,.57a3.83,3.83,0,0,0,1.26,3A4.87,4.87,0,0,0,385.75,104.53Z"/><path class="cls-2" d="M429.53,84.27a27.18,27.18,0,0,0-3.45-.26q-5.44,0-7.14,3.68v23.52h-9.6V75.27h9.06l.27,4.29c1.93-3.3,4.59-5,8-5a9.94,9.94,0,0,1,3,.43Z"/><path class="cls-2" d="M448.17,97.63l6.64-22.36h10.3l-14.45,41.52-.8,1.89q-3.23,7-10.63,7a15.15,15.15,0,0,1-4.25-.63v-7.28l1.46,0a7.83,7.83,0,0,0,4.07-.83,5.43,5.43,0,0,0,2.11-2.75l1.13-3-12.59-36h10.33Z"/><path class="cls-3" d="M187.65,164H168.51v19.77h-10V135.36H190v8.07H168.51v12.49h19.14Z"/><path class="cls-3" d="M193,165.42a21.35,21.35,0,0,1,2.05-9.53,15.14,15.14,0,0,1,5.93-6.48,17.3,17.3,0,0,1,9-2.29,16.33,16.33,0,0,1,11.87,4.45q4.6,4.45,5.14,12.09l.06,2.46q0,8.26-4.61,13.27t-12.39,5q-7.78,0-12.41-5T193,165.85Zm9.6.68q0,5.13,1.92,7.84a6.92,6.92,0,0,0,11,0c1.31-1.78,2-4.64,2-8.56q0-5-2-7.79a6.36,6.36,0,0,0-5.51-2.76,6.28,6.28,0,0,0-5.45,2.75Q202.6,160.35,202.6,166.1Z"/><path class="cls-3" d="M254.48,180.07a12,12,0,0,1-9.83,4.32q-5.79,0-8.82-3.32t-3.11-9.73V147.78h9.6V171q0,5.63,5.12,5.62,4.88,0,6.71-3.39V147.78h9.63v35.95h-9Z"/><path class="cls-3" d="M279.86,147.78l.3,4.16a12.54,12.54,0,0,1,10.33-4.82q5.72,0,8.5,3.36t2.86,10v23.22h-9.6v-23a6.27,6.27,0,0,0-1.33-4.44c-.89-.91-2.36-1.37-4.42-1.37a6.61,6.61,0,0,0-6.08,3.45v25.35h-9.6V147.78Z"/><path class="cls-3" d="M307.63,165.49q0-8.4,3.77-13.39a12.23,12.23,0,0,1,10.31-5,11,11,0,0,1,8.67,3.92V132.7H340v51h-8.67l-.46-3.82a11.32,11.32,0,0,1-9.24,4.48,12.21,12.21,0,0,1-10.18-5Q307.64,174.4,307.63,165.49Zm9.6.71c0,3.37.58,6,1.76,7.75a5.73,5.73,0,0,0,5.11,2.7,6.42,6.42,0,0,0,6.28-3.76v-14.2a6.33,6.33,0,0,0-6.21-3.76Q317.23,154.93,317.23,166.2Z"/><path class="cls-3" d="M368.28,183.73a10.83,10.83,0,0,1-1-3.23,11.63,11.63,0,0,1-9.07,3.89,12.74,12.74,0,0,1-8.75-3.06,9.79,9.79,0,0,1-3.48-7.7,10.17,10.17,0,0,1,4.24-8.77q4.23-3.06,12.24-3.09h4.42v-2.06a6,6,0,0,0-1.28-4,5.05,5.05,0,0,0-4-1.49,5.75,5.75,0,0,0-3.8,1.16,4,4,0,0,0-1.38,3.19h-9.6a9.61,9.61,0,0,1,1.93-5.78,12.73,12.73,0,0,1,5.45-4.17,19.77,19.77,0,0,1,7.9-1.51q6.64,0,10.55,3.34t3.9,9.38v15.58q0,5.12,1.43,7.74v.57Zm-7.94-6.68a8.26,8.26,0,0,0,3.92-1,6.23,6.23,0,0,0,2.66-2.54v-6.18h-3.59q-7.2,0-7.67,5l0,.56a3.86,3.86,0,0,0,1.27,3A4.91,4.91,0,0,0,360.34,177.05Z"/><path class="cls-3" d="M395.42,139v8.83h6.14v7.05h-6.14v17.93a4.3,4.3,0,0,0,.76,2.86,3.84,3.84,0,0,0,2.93.86,14.89,14.89,0,0,0,2.82-.23v7.28a19.93,19.93,0,0,1-5.81.86q-10.11,0-10.3-10.2V154.83h-5.25v-7.05h5.25V139Z"/><path class="cls-3" d="M406.84,138.48a4.73,4.73,0,0,1,1.45-3.55,6.22,6.22,0,0,1,7.86,0,5.07,5.07,0,0,1,0,7.14,6.15,6.15,0,0,1-7.81,0A4.73,4.73,0,0,1,406.84,138.48ZM417,183.73h-9.63V147.78H417Z"/><path class="cls-3" d="M423.45,165.42a21.36,21.36,0,0,1,2.06-9.53,15.14,15.14,0,0,1,5.93-6.48,17.3,17.3,0,0,1,9-2.29,16.35,16.35,0,0,1,11.87,4.45q4.6,4.45,5.13,12.09l.07,2.46q0,8.26-4.62,13.27t-12.39,5q-7.77,0-12.4-5t-4.64-13.56Zm9.6.68c0,3.42.65,6,1.93,7.84a6.92,6.92,0,0,0,11,0c1.31-1.78,2-4.64,2-8.56q0-5-2-7.79a6.37,6.37,0,0,0-5.51-2.76,6.27,6.27,0,0,0-5.45,2.75C433.7,159.44,433.05,162.27,433.05,166.1Z"/><path class="cls-3" d="M472.25,147.78l.3,4.16a12.55,12.55,0,0,1,10.33-4.82q5.72,0,8.5,3.36t2.86,10v23.22h-9.6v-23a6.22,6.22,0,0,0-1.33-4.44c-.89-.91-2.36-1.37-4.42-1.37a6.61,6.61,0,0,0-6.08,3.45v25.35h-9.6V147.78Z"/><path class="cls-3" d="M50.13,81.28C20.53,96.15,17.37,151.34,99,184.46,123,98.29,79.73,66.4,50.13,81.28Z"/><path class="cls-4" d="M119.25,93.36C145.48,99,158.06,141.79,99,184.44,64.46,121.79,93,87.75,119.25,93.36Z"/><path class="cls-3" d="M84.27,50.43A19.4,19.4,0,1,1,64.87,31,19.41,19.41,0,0,1,84.27,50.43Z"/><path class="cls-4" d="M129.45,67.1A14.09,14.09,0,1,1,115.36,53,14.09,14.09,0,0,1,129.45,67.1Z"/><path class="cls-2" d="M96.91,98.64c-15.3,12-22.17,41.82,2.06,85.8h0C110.15,144.32,106.73,116,96.91,98.64Z"/></g></g></svg>