<svg xmlns="http://www.w3.org/2000/svg" viewBox="0 0 283.46 119.66"><defs><style>.cls-1{fill:#fff;}</style></defs><g id="Layer_2" data-name="Layer 2"><g id="Layer_1-2" data-name="Layer 1"><path class="cls-1" d="M18.76,81.14C19,82,23.16,86,29.35,94.82c2.67,3.82,5.73,8.69,4.72,10.08-1.43,2-1,.82-7.41-.86-5-1.32-10.4-4.57-14.42-6.9a67.07,67.07,0,0,0,5,9.83c6.58,9.71,7.37,10.11,7.34,10.86a1.92,1.92,0,0,1-.34,1,1.8,1.8,0,0,1-1.25.84,1.05,1.05,0,0,1-.79-.2c-.3-.2-.59-.55-1.35-1.07a9.44,9.44,0,0,0-1.17-.7c-16.2-8.41-18.42-8.29-19.08-8.74a1.66,1.66,0,0,1-.38-2.06,2,2,0,0,1,.94-.66c1.25-.55,1.66.89,12.68,5.84,2.51,1.14,4.58,2.23,6.23,3.07a60.65,60.65,0,0,1-5.55-8.52c-2.79-5.61-4.91-10.51-6-12-.26-.32-.09-1,.25-1.48.54-.79,1.17-.79,2.16-.11.56.38,1.37,1,2.73,2a71.79,71.79,0,0,0,6.82,4.06,47.57,47.57,0,0,0,11.16,4.17s-1.3-4.53-10.41-15.64C17,82.42,14.92,81.85,16,80.24l.18-.27c.59-.71,1.16-.7,1.59-.41A2.76,2.76,0,0,1,18.76,81.14Z"/><path class="cls-1" d="M45.5,90.65a.56.56,0,0,1-.2.47,1.09,1.09,0,0,1-.79.42,2.3,2.3,0,0,1-.93-.34s-.37,3.45-2,5.32a2.92,2.92,0,0,1-4.46.28c-2-1.77-3.19-5.94-1.15-8.26,1.45-1.65,3.58-1.1,5.36-.34A10,10,0,0,0,39,85.32c-1.74-1.54-5.66-3.86-7.75-1.49-1.05,1.2-1.27,3.08-.9,3.51.12.11.07.23-.07.38a1.11,1.11,0,0,1-1.51.21c-1-.9-.33-3.75,1.2-5.49a4.14,4.14,0,0,1,1.9-1.31c3.12-.94,6.05.57,8.39,2.63A22,22,0,0,1,45.5,90.65Zm-8-.88c-1.32,1.51-.81,4.19.69,5.51a1.23,1.23,0,0,0,2-.07c1.3-1.47,1.38-5,1.38-5S38.41,88.78,37.54,89.77Z"/><path class="cls-1" d="M48.49,65.11c-.34.33-.83.64-1.06.86a33.09,33.09,0,0,0-4.2,5.27,119.75,119.75,0,0,0,7.87,9.42c.47.49.94,1,1.39,1.38a8.75,8.75,0,0,1,1,.72.84.84,0,0,1,0,1.36l-.11.11c-.92.78-2.09-.15-2.54-.61A70,70,0,0,1,45.3,77.3C43.53,75.06,43.09,74.38,42,73a20.07,20.07,0,0,0-1.67,3.17c-.26.7-.38,2.53-.9,3a1.49,1.49,0,0,1-1.7,0,.76.76,0,0,1-.16-.23c-.27-.57-.41-.83.59-3a37.48,37.48,0,0,1,2.55-4.85S37.05,66,36.1,65c-.47-.49-.91-.83-1.3-1.24-.59-.6-1-1.23-.42-1.76s1.42-.31,2.89,1.21c.41.44.88,1,1.41,1.64,1.49,1.89,1.77,2.52,3.31,4.64a27.94,27.94,0,0,1,3.41-4c.26-.25.55-.47.81-.72.63-.56,1.64-1.58,2.47-.83C49.1,64.36,48.86,64.75,48.49,65.11Z"/><path class="cls-1" d="M69.46,59.68c.2.31-3.17,12-8.24,16.08-1.83,1.49-4.72,2.12-6.48-.05-2.92-3.61-2.6-12.82-.22-15.41a3.43,3.43,0,0,1,.5-.46c.75-.61,1.31-.55,1.66-.11a2.18,2.18,0,0,1,0,2.5c-.31.25-.78.37-1.15.67a.83.83,0,0,0-.23.23c-.54.8-1.23,8.21,1,10.91,1.05,1.31,2.71,1.2,4.05.12,3.92-3.17,7.4-14.07,7.64-14.47a1.34,1.34,0,0,1,.23-.29.89.89,0,0,1,1.21.16Z"/><path class="cls-1" d="M84.28,56c.35.53.73,1,1,1.29s.37.85-.4,1.36-1.49,0-2.07-.88-1.23-2.16-2.43-4c-1.65-2.5-3.83-5.28-4.87-5.26a1.14,1.14,0,0,0-.63.22c-2,1.33-3.47,8.16-3.08,10.78a11.73,11.73,0,0,0,1.81,4.61c.24.36.55.69.82,1.09.82,1.23.39,2-.21,2.44a1.29,1.29,0,0,1-1.86-.35,4.37,4.37,0,0,1-.5-1.69c-.14-1-3.23-4.81-7.79-13.64-3-5.9-5.25-8.57-4.08-9.34a1.22,1.22,0,0,1,2,.42c.69,1,1.34,3.1,2.83,5.86,1.56,2.94,3.17,5.86,5,9,0,0,.61-8.85,4.08-11.14a3.35,3.35,0,0,1,1-.47c2.22-.56,5,2.75,7.22,6.11C82.81,53.59,83.64,55.05,84.28,56Z"/><path class="cls-1" d="M108.19,28.84c-.44.2-1,.32-1.29.45a33,33,0,0,0-5.74,3.52,117.26,117.26,0,0,0,4.18,11.54c.27.62.55,1.24.83,1.77a8.14,8.14,0,0,1,.67,1,.83.83,0,0,1-.48,1.26l-.15.07c-1.13.41-1.91-.86-2.17-1.44a69.19,69.19,0,0,1-3-7.82c-.9-2.7-1.08-3.5-1.6-5.15a19.52,19.52,0,0,0-2.65,2.41C96.3,37,95.56,38.72,94.9,39a1.48,1.48,0,0,1-1.6-.55.79.79,0,0,1-.08-.27c-.06-.63-.1-.92,1.57-2.58a36.59,36.59,0,0,1,4-3.69s-1.7-6.16-2.25-7.4c-.28-.62-.58-1.1-.81-1.62-.34-.76-.49-1.49.21-1.79s1.44.18,2.3,2.12c.25.55.5,1.22.77,2,.76,2.29.8,3,1.53,5.49a27.54,27.54,0,0,1,4.57-2.6c.33-.15.68-.26,1-.41.78-.3,2.08-.92,2.61.07C109,28.34,108.67,28.63,108.19,28.84Z"/><path class="cls-1" d="M128.74,36.32c.21.61.47,1.11.6,1.49s.15.92-.72,1.22-1.44-.38-1.79-1.37-.66-2.39-1.37-4.43c-1-2.83-2.4-6.07-3.42-6.31a1.1,1.1,0,0,0-.66.06c-2.26.79-5.38,7-5.65,9.68a11.67,11.67,0,0,0,.6,4.91c.15.41.37.8.53,1.26.48,1.4-.13,2.07-.81,2.31a1.29,1.29,0,0,1-1.72-.8,4.51,4.51,0,0,1-.06-1.76c.12-1-1.94-5.46-4.16-15.15-1.49-6.47-3-9.6-1.64-10.06a1.22,1.22,0,0,1,1.79.9c.41,1.17.53,3.33,1.29,6.37.79,3.24,1.61,6.47,2.66,10,0,0,2.79-8.42,6.71-9.79a3.23,3.23,0,0,1,1.08-.2c2.29,0,4.15,3.89,5.47,7.71C127.92,33.6,128.36,35.23,128.74,36.32Z"/><path class="cls-1" d="M147.09,27.76c-.73.68-5.55,8-9.93,9.05a4.1,4.1,0,0,1-1.8.08,8.39,8.39,0,0,1-6.09-6,6.16,6.16,0,0,1-.19-1.43c-.09-4.64,4.16-8.88,8.24-9.91a6.05,6.05,0,0,1,3.56.06.32.32,0,0,1,.22.23c.24,1-2.43,4.28-4.31,6.16a13.31,13.31,0,0,1-5.41,3.25,5,5,0,0,0,.16,1.16,6.32,6.32,0,0,0,1.89,3.07c1,.95,1.95,1.7,3.66,1.27,3.06-.77,7.84-7.21,8.09-7.85.13-.48.3-1.6,1-1.76a1.31,1.31,0,0,1,1.48.94A2,2,0,0,1,147.09,27.76Zm-12.8-4.33a10.56,10.56,0,0,0-2.53,3.4,11.2,11.2,0,0,0,4.18-2.74,14.61,14.61,0,0,0,2.35-2.82A9.3,9.3,0,0,0,134.29,23.43Z"/><path class="cls-1" d="M178.91,14.41c-1.59,1.7-7.27,12.6-7.75,14.1-.27.88-.88,2.27-1.84,2.37a1.59,1.59,0,0,1-.57-.1c-.88-.35-1.24-1.76-1.56-2.57-1.38-3.43-2.43-6.86-2.93-7.85a13.73,13.73,0,0,1-1.29-3,.73.73,0,0,1,.67-.84c.84-.09,2,1.16,2.69,2.93.77,1.93.66,2.47,1.62,5.06.28.73.53,1.55,1.07,2.78,0,0,2-3.75,4.07-7.39s4.86-8,4.94-8.45.66-2.09,1.5-2.17c.63-.07,1.12.72,1.18,1.32A5.54,5.54,0,0,1,178.91,14.41Z"/><path class="cls-1" d="M185,1.22a17.38,17.38,0,0,1-.94,2.54c-.52,1.51-.2,2.17-.58,2.6a1,1,0,0,1-.7.39c-.6,0-.76-.75-.79-1.31a6.64,6.64,0,0,1,.53-2.72C183.28,1,182.91.06,184,0A1.05,1.05,0,0,1,185,1.06Zm.24,23.1.05.76c.1,1.8.58,1.85.62,2.57s-.21,1.33-1,1.38a1.75,1.75,0,0,1-1-.31c-.38-.26-.55-1.13-.63-2.57-.1-1.91-.06-4.8-.08-8.64,0-2.21-.29-4.47,1.11-4.63a1.36,1.36,0,0,1,1.32,1.45C185.74,15.68,185.18,22.77,185.26,24.32Z"/><path class="cls-1" d="M208.17,3.35c-.27.76-1.57,11.65-1.81,17.45,0,0,1.48.11,1.68.95a1.56,1.56,0,0,1,.08.56c0,1.08-1.07,1-2.43,1.61a14.63,14.63,0,0,1,.26,2.36c0,.92-.15,1.76-.83,1.76-1.92-.27-1.49-1.55-1.82-2.7,0,0-5.81,4-10,4.05-2.64,0-4.21-1.89-4.23-4.41,0-4.8,6.06-10.36,9.74-10.38a2.83,2.83,0,0,1,.6,0c3.2.66,3.89,2.54,4.95,4.41,0,0,1.56-13.37,1.55-15.49a.72.72,0,0,0-.05-.32,5,5,0,0,1-.24-1.6c0-.64.19-1,.67-1a2,2,0,0,1,2.05,2A1.73,1.73,0,0,1,208.17,3.35ZM199.89,16.8a2.3,2.3,0,0,0-1-.2c-3.24,0-7.73,5.36-7.71,8.52a2.2,2.2,0,0,0,2.41,2.19c2.52,0,6.27-2.52,9.46-4.37C203,22.94,202.38,17.86,199.89,16.8Z"/><path class="cls-1" d="M228,23.72c-.9.42-7.68,5.92-12.19,5.65a4.27,4.27,0,0,1-1.74-.46,8.4,8.4,0,0,1-4-7.57,5.88,5.88,0,0,1,.25-1.43c1.3-4.45,6.63-7.22,10.83-7a6.15,6.15,0,0,1,3.38,1.12.31.31,0,0,1,.14.29c-.06,1-3.6,3.36-6,4.58a13.17,13.17,0,0,1-6.14,1.48,5.42,5.42,0,0,0-.19,1.15,6.31,6.31,0,0,0,.88,3.5c.65,1.2,1.35,2.21,3.11,2.31,3.15.18,9.64-4.52,10.07-5.06.27-.42.77-1.44,1.45-1.4a1.31,1.31,0,0,1,1.12,1.35A2,2,0,0,1,228,23.72Zm-10.91-8a10.64,10.64,0,0,0-3.43,2.48,11,11,0,0,0,4.81-1.36,14.2,14.2,0,0,0,3.08-2A9.37,9.37,0,0,0,217.13,15.74Z"/><path class="cls-1" d="M233,30.65c-2.82-.31-3.92-3.89-3.64-6.51a7.84,7.84,0,0,1,1-3.07c2.78-4.81,5.32-6.66,7.62-6.41,1.59.17,4.78,1.93,4.75,6.31,0,.48,0,.88-.07,1.32C242.08,28,236.36,31,233,30.65Zm-1.08-7.84a4.91,4.91,0,0,0-.4,1.52c-.16,1.44.31,4.1,2.14,4.3s4.58-1.71,5.49-3.06a9.26,9.26,0,0,0,1.6-4c.19-1.75-.49-4.4-2.68-4.64C237.77,16.93,234.63,17,231.94,22.81Z"/><path class="cls-1" d="M272.78,92.12c.24,0,.05-.41.06-.49C272.48,91.82,272.82,92.22,272.78,92.12Z"/><polygon class="cls-1" points="269.17 94.02 269.2 93.84 268.73 94.39 269.17 94.02"/><path class="cls-1" d="M265.56,94.94c.51.61,1.28-.45,2-.36l.14.13.15-.63C267.08,94.36,266.16,95,265.56,94.94Z"/><path class="cls-1" d="M263.28,93.93c.18.24-.36.34.46,0l-.09-.05A2.18,2.18,0,0,1,263.28,93.93Z"/><path class="cls-1" d="M263.65,93.85c.37-.11-.3-.16,0,0Z"/><path class="cls-1" d="M261.93,94.42l.44-.35c-.14-.14-.59-.08-.45-.23C261.43,94.08,261.57,94.22,261.93,94.42Z"/><path class="cls-1" d="M261.57,95l.24-.16C261.74,94.81,261.67,94.8,261.57,95Z"/><path class="cls-1" d="M262.31,94.53l-.5.34c.09.09.15.32.23-.13C262,95,262.11,94.73,262.31,94.53Z"/><path class="cls-1" d="M262.65,94.57c.31.09.7.11.25.46C263.84,94.7,263.58,94.26,262.65,94.57Z"/><path class="cls-1" d="M265.55,95.71l.43.1.27-.31C266.11,95.65,265.47,95.49,265.55,95.71Z"/><path class="cls-1" d="M258.72,94.73c0,.15.25.36.33.54l.34-.25C259.17,95,258.79,94.94,258.72,94.73Z"/><path class="cls-1" d="M259.05,95.27l-.5.37C259.06,95.57,259.12,95.43,259.05,95.27Z"/><polygon class="cls-1" points="261.65 95.82 262.45 95.09 261.48 95.86 261.65 95.82"/><polygon class="cls-1" points="256.6 95.17 256.84 94.75 256.39 95.4 256.6 95.17"/><path class="cls-1" d="M255.21,95.53c.17-.34-.42-.41-.21-.64a2.37,2.37,0,0,0-.9.73A1.25,1.25,0,0,1,255.21,95.53Z"/><path class="cls-1" d="M253.67,96.05a2.49,2.49,0,0,0,.43-.43A1.59,1.59,0,0,0,253.67,96.05Z"/><path class="cls-1" d="M257.59,95.78a.67.67,0,0,0-.53-.33l.31.37Z"/><path class="cls-1" d="M257.38,95.83h0l-.48.07Z"/><path class="cls-1" d="M257.65,95.77h-.06S257.63,95.82,257.65,95.77Z"/><path class="cls-1" d="M260.11,95.76c-.28.3-.91.7-.17.91C260.12,96.33,259.69,96.21,260.11,95.76Z"/><path class="cls-1" d="M258,96.23l.61,0c0-.11-.18-.25,0-.4Z"/><polygon class="cls-1" points="257.77 96.42 258.03 96.23 257.8 96.24 257.77 96.42"/><path class="cls-1" d="M254.76,96.22a1.66,1.66,0,0,1-.8.41,4.48,4.48,0,0,0,1-.09C255,96.4,255.12,96.13,254.76,96.22Z"/><path class="cls-1" d="M256,96.07l-.05,0S256.06,96.14,256,96.07Z"/><polygon class="cls-1" points="250.83 97.19 250.9 97.26 250.9 97.18 250.83 97.19"/><path class="cls-1" d="M255.08,96.6a.52.52,0,0,0,.52-.27,2.83,2.83,0,0,1-.6.21C255,96.6,255,96.64,255.08,96.6Z"/><path class="cls-1" d="M252.84,96.4a2.56,2.56,0,0,0,.49.16C253.17,96.45,252.87,96.29,252.84,96.4Z"/><path class="cls-1" d="M255.88,96l0,0C255.81,95.91,255.83,96,255.88,96Z"/><path class="cls-1" d="M255.88,96a1.22,1.22,0,0,0-.28.32,1.67,1.67,0,0,0,.39-.23A.48.48,0,0,1,255.88,96Z"/><path class="cls-1" d="M250.37,100.06c0-.4.59-.88,1.25-.56.52-.4-.09-1.61-.72-2.24,0,.17,0,.33-.51.66.25.18,1.4.27,1,.71-.75.34-.67,0-1.09-.17.41.43-.87.89-.57,1.57l.64-.37C250.38,99.77,250.16,100,250.37,100.06Z"/><path class="cls-1" d="M252,97.1l.23-.09a2.19,2.19,0,0,1-.94-.38c-.36.26-.42.42-.42.55l1.2-.15Z"/><path class="cls-1" d="M253.34,96.82c-.1.46-.65.74-.21,1.13.71-.15.44-.43.82-.71-1.12.34.29-.29-.59-.37a3.94,3.94,0,0,1,.6-.24,3.2,3.2,0,0,1-.63-.07l0,0h0c.06,0,.08.08,0,.06h0a.47.47,0,0,1,0,.17c-.34,0-.07-.1,0-.17v-.07h0l-1.1.43A3.54,3.54,0,0,0,253.34,96.82Z"/><path class="cls-1" d="M259.53,97.71a.16.16,0,0,1-.06-.09C259.41,97.69,259.39,97.73,259.53,97.71Z"/><path class="cls-1" d="M259,97.56c.07-.08.11-.26.39-.28s0,.2.08.34c.14-.15.51-.43-.05-.52l-.07.07c-.49,0-1.2-.44-1.13-.51A3.08,3.08,0,0,0,259,97.56Z"/><path class="cls-1" d="M256.15,97.31l-.91.41.56.26-.07-.21C256.29,97.74,256.12,97.49,256.15,97.31Z"/><polygon class="cls-1" points="250.69 97 250.73 96.53 250.29 97.26 250.69 97"/><polygon class="cls-1" points="249.45 97.27 249.43 96.87 249.14 97.16 249.45 97.27"/><path class="cls-1" d="M178,101.6l-.31.05A1.53,1.53,0,0,0,178,101.6Z"/><path class="cls-1" d="M180,102.07l.09-.18C180,102,179.94,102,180,102.07Z"/><path class="cls-1" d="M218.74,100.55c-.42-.37-.9-.94-.84-.5l.14.44A.9.9,0,0,1,218.74,100.55Z"/><path class="cls-1" d="M197.39,102.4l.11.15.32-.39Z"/><path class="cls-1" d="M196.92,104.17l-.53-.33A2,2,0,0,0,196.92,104.17Z"/><path class="cls-1" d="M166.64,99l-.46.32C166.69,99.51,166.53,99.23,166.64,99Z"/><path class="cls-1" d="M236.71,99.34a2.34,2.34,0,0,0-.91-.14C236.25,99.39,236.64,99.71,236.71,99.34Z"/><path class="cls-1" d="M179.76,97.28c-.18,0-.28.11-.29.2C179.66,97.45,179.78,97.39,179.76,97.28Z"/><path class="cls-1" d="M234.77,99.3l.2.09a2.59,2.59,0,0,1,.83-.19A.85.85,0,0,0,234.77,99.3Z"/><path class="cls-1" d="M129.31,79.75l-.05-.1S129.25,79.72,129.31,79.75Z"/><path class="cls-1" d="M123.1,68.55a2.88,2.88,0,0,1,.36.31A.9.9,0,0,0,123.1,68.55Z"/><path class="cls-1" d="M244.43,98c.26-.07,0,0,0,0Z"/><path class="cls-1" d="M246,99.42a.29.29,0,0,0-.07.23A.35.35,0,0,1,246,99.42Z"/><path class="cls-1" d="M232.38,102.23h0C232.45,102.31,232.43,102.29,232.38,102.23Z"/><path class="cls-1" d="M244.86,98.08a1.35,1.35,0,0,0-.36-.07A1.22,1.22,0,0,0,244.86,98.08Z"/><path class="cls-1" d="M244.77,97.89H245C245,97.81,245,97.77,244.77,97.89Z"/><path class="cls-1" d="M244.06,98a2.2,2.2,0,0,1,.44,0c-.06,0-.08,0-.07-.06A2.18,2.18,0,0,1,244.06,98Z"/><path class="cls-1" d="M149.1,90.46l0-.06C148.74,90.44,148.86,90.47,149.1,90.46Z"/><path class="cls-1" d="M211.75,105.1l0,0,0,0Z"/><path class="cls-1" d="M210.76,105.41c.43-.52.67-.46,1-.35l-.31-1.25Z"/><path class="cls-1" d="M173,100.51l.57.55c-1,.41-1.51,0-1,.74.44-1.29,2.67.54,3.09-.75l.37.39c-.12,0-.16,0-.28,0,.71.86.86-.78,1.93-.36.37.19.6.44.3.54l.94-.14c.25.07.13.29-.11.21l1.34.18v0a5.87,5.87,0,0,1,1-.5c.29.27-.2.11-.15.29l.8-.16c.23.4-.44.61-.94.45.41,1.48.67-.2,2,.89l-.73,0c.3.86.9.69,1.61,1.29-.15-.28-1.36-1.46-.5-1.66a1,1,0,0,0,1,0c-.08.48.36.44.9.5l-.15.62c.61-.08.62-.41,1-.64.63.17.68.68.76,1.12,1,.27-.58-.9.65-.82a3.51,3.51,0,0,0,2.52,0c.57.3-.16.38,0,.59l.6-.44c.13,0,.06.17,0,.25.47-.14.13-.63.85-.71.28-.68,1.3,1.19,2.27.51.19.2-.15.37-.12.63a6.49,6.49,0,0,0,2.12-.84l.78.52c-.56-.55.28-1,1-1.44a6.21,6.21,0,0,0-.47-.57l1.12-.25c.12.11,0,.32-.22.58L198,102c.36.26.13.62-.18,1l-.36-.42a1.92,1.92,0,0,0-.58,1.15.84.84,0,0,1,.38-.15c-.08.1-.14.19-.11.26s.16-.06.35-.21l.18.73.09-.28,1.39.56c1.09-.63,2.06-1.62,3.68-1.78-.43.49-.14.84-.2,1.46-.4-.69-1.28.18-2.11,0,.43.1.32.39.2.48l1.54-.47c-.07.5.3.4.68.64-.24-1,1.16-.58,1.78-.88,0,.34-.14.68-.88.57.78.78,1.12-1.14,1.9-.47-.19,0-.28,0-.36.12.44-.29,1.46,0,1.21.27h-.18c1.2.16,3.68.14,3.88-.7a6.58,6.58,0,0,1-.26,1.19c.74-.92,1.47-1.86,2.19-2.83-.19.73.52,2.47-.49,2.89a1.53,1.53,0,0,0,1.26,0c-.2-.11-.49-1.06-.22-1.13.73.81.51.44,1.42,1.12-.3-.15,0-1.3.49-1.27-.07.18.05,1.14-.12,1.26l1.15-1.14c-.29.21,0,1,.22,1.27-.13-.22,1,0,1.31-.1l-.5-.25c1.32.15,1.26-1.58,2.55-1.55-.15.24-.34,1.44.32,1.55.29-.59,1.24-2.83,2.35-3.33l.23.32.85-.42a19.08,19.08,0,0,1-2.77,3.54c.5.24.15.38.89.32.27.29-.39.48-.6.51l1.72.12c-.1-.67,1.28-.74,1.19-1.3l-1.83.79c-.1-.67,1-2,2.2-1.9.32.25-.17,1.21-.13,1.43.14-.24,1.12-.5,1.24-.34l-.49.39c.69.21,1-1,1.89-.35.28,0,.9.82.92.42a6.35,6.35,0,0,1-.5-3.69,9.7,9.7,0,0,1,1.84,1c.5.56-.57,1.5-.15,2a1,1,0,0,1,.34-.52c.31.13-.08.58.55.44,0-.69,1.3-.06.26-.6.6-.26.67.08,1.39,0-.27-.42.52-1.55,1.12-1.8a.79.79,0,0,0,.21.48c1.27,0,2,.19,3.16.09.13.16.72.29.51.61.16-.14.28-.39.64-.46.78.5-.79.2-.18.84,0-.4.88-.67,1.37-1-.24-.58-1.21,0-1.7.36-.1-.84.7-1.84,1.87-2.39.94-.33.49.49.64.35,1.84-.1,1.36-1.67,2.94-1.27.68.46.18,1.06.37,1.43-.77.3-1.27-.18-1.8-.09l.7.17a1.27,1.27,0,0,1-1.05.3c.57.41,3.1-.32,4.57-.07.23-.21.63-.46.39-.64l-.43.13c-.47-.37.75-.71.15-.83a2.89,2.89,0,0,1,2-.89l.25.58c0-.18-.6-.27-.8,0,.3-.33,1.41.59,1.66-.26l-.65-.32c.54-.41,1.16-1.18,1.93-1.12-.44-.53-.16.1-.8-.51.6.79-1.88.3-1,1.08-.67-.72-1-.18-1.79-.75,0,.2.31.34-.32.35a1.28,1.28,0,0,1-.11.2h0l0,0s0,0,0,0a.85.85,0,0,1,.36.25c-.23.52-1.22.67-1.52.94-.39-.05.12-.25-.12-.44l-.44.42c-.12-.44-1.09-.61-.26-1l-.78.08a1.81,1.81,0,0,0-1.5,0c-.38,0-.87.61-.59.22l-1.19.44,0-.11c-1.21.09-2.39,1.1-3.87.43a3,3,0,0,1-1.5.26l-.17-.38c-.51.19-1.61-.24-1.79.18-.66-1-2.56,0-3.49-.09v.51a8.7,8.7,0,0,0-2,.45l.08.45c-.66.4-1.77-.23-2.84-.14.06-.17.34-.14.54,0-1.34-.94-2.69.87-3.89.19a.62.62,0,0,1-.7,0l.07,0a.24.24,0,0,0-.12,0c-.13-.07-.26-.16-.41-.23a1.23,1.23,0,0,0,.35.23,3.63,3.63,0,0,0-.9.19l-.15-.48H218c-.33-.17-.25.23-.07.59a1.55,1.55,0,0,0-.44.3c-.28-.78-.87.26-1.25-.56-.22.4-1.67.31-1.85,1.16,0-.11-.11-.16.07-.17a1.21,1.21,0,0,0-1.08.06l-.16-.62-.82.83c-.49-.37-.69-.58-.2-1.06-1.19.74-1,.27-2,1l0-.39c-.36,0-.95.51-1.16.17-.78-.8-4-.21-6-1.06.32,1.2-.93-.59-1.07.3-.1-.28-.37-.46,0-.67-1.07.18-1.54-.57-2.33.14-.1-.29.26-.39.17-.56-.09,0-.36.21-.45,0s.17-.22.35-.33c-1.07,0-1.26.8-1.41,1.59-.51-.42-.79-.39-1.24.1-.16-.27-.45-.57.23-.61-.38,0-2.24-.65-2.36,0-.1-.18-.51-.11-.62,0a10.42,10.42,0,0,0-1.74-.25l.22.13c-.43.73-.71.09-1.39.1l0-.08c-1.45-.75-.7.21-2.11-.66v.49c-.3,1-1.24-.83-2.16-.58l.27.32c-.54.27-1.1-1.61-1.55-1.81-.08-.11.19-.12.35-.16-1.13-.81-.27.59-1.22.58-.11-.36.37-.81-.24-1-.26-.3-2,.76-2.71-.07.13.29.26.59-.2.69-.68-.05-1.56-1.34-2.33-.66a.28.28,0,0,1-.07-.23c-.55.1-1.7,0-2.11.37-.06-1.73-3.28,0-2.89-1.49L172.93,96l.08-.14a1.84,1.84,0,0,0-1.82.16c-.2-.17,0-.25,0-.33a2.75,2.75,0,0,0-2.87-.33l0-.51c-.4.17-1.79-1.33-3.32-1.28a.33.33,0,0,1,.22-.16c-1.72,0-3.17-2.55-4.35-1.08l-1.15,0c1.24.64-.48.65-.05,1.14-.55-.1-1.12-1-.47-.86l.07.12c.57-.79-1.48-1-1.21-1.53a22.8,22.8,0,0,1-3.61-1.77c-1.15-.66-2.29-1.29-3.41-1.88l0,.79-.78-.44c-.13-.25,0-.65.52-.34-.11-.52-1.1-.16-1.19,0-1-.82.82-.55.48-.74l-.48-.18.06.13c-.5.09-.68.35-1.35,0-.36-.34,0-.51-.17-.62,0,0,0-.09-.25-.15l-.95-.58.13.72c-.57,0-.92-.53-.77.3-.1-.63-1-1.2-1.85-1.69a7.15,7.15,0,0,1-1.88-1.17,3.44,3.44,0,0,1-2.1-.82c.12.21-.12.84-.7.39.93-1-.83-1.22-.81-2.35.1.82-1.84-1-1.64.22-.45-.42.25-.44,0-1-1.47-.41-2.46-2.06-4-3-.12.12,0,.52-.51.5l-.23-1.27c-.33-.14-.88.62-1-.26,0,.18-.05.44-.27.34a10.9,10.9,0,0,0-1.91-1.87c-.69-.56-1.42-1.1-2.13-1.64a9.79,9.79,0,0,1-3.42-4.17c.09.58-.15.38-.42.13.11.23-.31.3-.45.5-.19-.5-.38-1-.55-1.51-.68.26-1.1-1.12-1.67-.81l.4.27c-1,0-.65,1.76-1.4,2.35,1.11,0,.45,2.28,2.16,2.26.06.32-.38.07-.43.32.51-.08.83.11,1.2.71l-.12,0c1.46,1.22,1.79,2.08,3.27,3.66l.18-.46a1.5,1.5,0,0,1,.38.75c.87-.21-1-.86-.08-1.16-.17,1.15,2.49,2,2.14,3.16.56.45.18-.56.73-.11l0,.35.38-.19a.79.79,0,0,1,.16,1c-.07-.09-.3-.14-.41-.19.27.64,1.44.92,1.54,1.13l-.44-.55c1.7.94,3.44,2.59,5.33,3.13v-.27c1.42.42.83.82,2.24,1.5h-.07a1.9,1.9,0,0,1,1.14.36c-.48,0,.37.81-.22.79,1.56.4.84.09,2.13-.11l0,.44a1.4,1.4,0,0,1,1.29,0c-.71,0,.15.75-.68.75,1,1.54,2.52.45,2.61,1.86,1.14-.55-1-1.17-.5-1.17-.14-.46.91-.38,1.31,0s.15,1.58,1.33,2.18c-.12-.07-.16,0-.28-.07.32.46,1,.12,1.38.76.58-.4.69.38,1.12-.29l-1.16-.36c.71.12,1.69-.44,2.49.46a1.72,1.72,0,0,1-.79.15c.19.36.63.14.83.51-.43.67-1.38-.49-2.31-.27.17.45,1.5.09.79.7,1-.75,1.11.71,2.27.33l-.26.41a1.65,1.65,0,0,1,.76,0l-.69.37c.88-.18,1.08,1,1.84,1-1.34-.58-.07-.66-.48-1.22,1.88.14.43,1.55,2.36,2.16-.28,0-.82-.68-.35-.71a2.77,2.77,0,0,1,.82.94c1.28.41,0-.52.64-.58.2.7.7,0,1.3.06l-.18.45c1.29.85.75-.78,1.87.06l-.78.41.72.11-.33.45a2,2,0,0,1,1.7.52c-.05-.39.39-.77,1-.58.33.42-.4.35.51.6-.3.21-.65.49-.89-.06-.09.13-.3.21-.4.34.35.47,1.15.48,1.47.59a.76.76,0,0,1-.31-.23l1.52-.17c.14.24-.07.32-.27.4.28,0,.53-.1.93,0-.23.34-.33.73-1,.71l1.39,0c0,.19.48.67.28.75.61.48,1.93-.16,2.76.41a.57.57,0,0,1,.41-.09c.83.34,1.47,1,2.65.84l.39.85c.85.09-.55-1.08.87-1,1,0,.19.67.48.94.57-.21,1.58-.7,2.32.08C173.48,100.69,173.28,100.53,173,100.51Zm10.15,2c-.21.07-.66.3-.75,0C182.73,102,182.85,102.29,183.15,102.5Zm15.66,1c-.16.15-.38,0-.62-.15A.89.89,0,0,1,198.81,103.45Zm42.77-4.72s0,0,0,0C241.11,98.63,241.27,98.68,241.58,98.73Zm.93.09a.14.14,0,0,0,0-.21c-.05.13-.25.17-.48.17C242.13,98.89,242.26,99,242.51,98.82ZM148,86.29l.1.19C147.65,86.43,147.81,86.36,148,86.29Z"/><path class="cls-1" d="M197,104a.58.58,0,0,1-.06-.26C196.84,103.77,196.83,103.86,197,104Z"/><path class="cls-1" d="M166.72,99h0a.18.18,0,0,0-.05.07Z"/><path class="cls-1" d="M228.9,104.46a.78.78,0,0,1-.39-.21C228.51,104.36,228.61,104.46,228.9,104.46Z"/><path class="cls-1" d="M247.12,97.26l-.55.23a.76.76,0,0,1,.54.06C247.07,97.44,246.94,97.3,247.12,97.26Z"/><path class="cls-1" d="M252.61,99.33c.08-.07.18,0,.25-.11L252.8,99C252.44,99.08,252.23,99.31,252.61,99.33Z"/><path class="cls-1" d="M247.91,98.75c.11.39.45.2.84,0h-.07C248.7,98.23,248.31,98.49,247.91,98.75Z"/><path class="cls-1" d="M248.84,98.77a1.21,1.21,0,0,1,.37-.07C249.22,98.46,249.05,98.68,248.84,98.77Z"/><path class="cls-1" d="M243.61,98.4c.21.08,0-.53.17-.38C243.92,97.48,242.61,98.81,243.61,98.4Z"/><polygon class="cls-1" points="248.46 100.01 248.23 99.55 248.07 99.98 248.46 100.01"/><path class="cls-1" d="M245.21,100.21l.67,0c0-.08.05-.14.15-.2C245.63,100.09,245.17,100.06,245.21,100.21Z"/><path class="cls-1" d="M246,100a.87.87,0,0,0,.5-.17A1.74,1.74,0,0,0,246,100Z"/><polygon class="cls-1" points="247.6 100.32 247.39 100.25 246.93 100.29 247.6 100.32"/><path class="cls-1" d="M238.23,101.06l-.69.24c0,.18.16.26.41.15S238.36,101.21,238.23,101.06Z"/><path class="cls-1" d="M240.55,102.14c-.2-.08-.23-.19-.36-.34l.06.62Z"/><path class="cls-1" d="M238.5,102.56c-.05.18-1,.62-.08.47C238.47,102.85,239.17,102.61,238.5,102.56Z"/><polygon class="cls-1" points="227.66 102.86 227.84 102.84 227.74 101.83 227.66 102.86"/><path class="cls-1" d="M218.22,105.74c.86.24.19-.63,1-.33.19-.24-.64-.24-.44-.45C218.24,105.21,218,105.07,218.22,105.74Z"/><path class="cls-1" d="M218.75,105a1.53,1.53,0,0,0,.26-.16A.72.72,0,0,0,218.75,105Z"/><polygon class="cls-1" points="122.18 66.78 121.99 66.26 121.96 66.73 122.18 66.78"/><path class="cls-1" d="M121,66.55l.41-.51c-.21,0-.41.11-.62.16C120.83,66.25,121,66.38,121,66.55Z"/><path class="cls-1" d="M184.44,104l.07-.14c-.06-.18-.18-.22-.44-.29Z"/><polygon class="cls-1" points="177.13 102.07 177.26 102.11 177.15 101.49 177.13 102.07"/><path class="cls-1" d="M170.79,101.24c.25.09.58,0,.82.13C171,101.33,170.92,100.51,170.79,101.24Z"/><path class="cls-1" d="M242.24,86.88c-.11-.09-.21.22-.25.26C242.23,87.17,242.27,86.8,242.24,86.88Z"/><polygon class="cls-1" points="244.56 87.19 244.47 87.29 244.9 87.14 244.56 87.19"/><path class="cls-1" d="M246.43,88.08c0-.58-.71-.25-1-.58v-.13l-.33.32C245.56,87.82,246.2,87.81,246.43,88.08Z"/><path class="cls-1" d="M247,89.58c0-.22.3-.08-.21-.16l0,.06A1.21,1.21,0,0,1,247,89.58Z"/><path class="cls-1" d="M246.79,89.48c-.21-.07.06.22,0,0Z"/><path class="cls-1" d="M247.78,89.76l-.34.06c0,.14.24.26.11.31C247.87,90.15,247.86,90,247.78,89.76Z"/><path class="cls-1" d="M248.19,89.5l-.17,0C248,89.58,248.05,89.61,248.19,89.5Z"/><path class="cls-1" d="M247.66,89.55l.36,0c0-.1,0-.26-.16,0C247.94,89.38,247.83,89.5,247.66,89.55Z"/><path class="cls-1" d="M247.52,89.41c-.1-.17-.27-.32.07-.38C247.05,88.89,247,89.27,247.52,89.41Z"/><path class="cls-1" d="M246.75,87.62l-.13-.24-.24.09C246.5,87.42,246.69,87.77,246.75,87.62Z"/><path class="cls-1" d="M249.35,90.7c.06-.1,0-.32.06-.46l-.25,0C249.24,90.39,249.4,90.54,249.35,90.7Z"/><path class="cls-1" d="M249.41,90.24l.37-.06C249.52,90.05,249.44,90.12,249.41,90.24Z"/><polygon class="cls-1" points="248.46 88.97 247.82 89.16 248.56 89.01 248.46 88.97"/><polygon class="cls-1" points="250.49 91.18 250.23 91.36 250.67 91.1 250.49 91.18"/><path class="cls-1" d="M251.28,91.4c-.21.17.05.41-.13.49a1.24,1.24,0,0,0,.68-.18A.55.55,0,0,1,251.28,91.4Z"/><path class="cls-1" d="M252.18,91.57a1.81,1.81,0,0,0-.35.14A.71.71,0,0,0,252.18,91.57Z"/><path class="cls-1" d="M250.26,90.44a.49.49,0,0,0,.12.39v-.34Z"/><path class="cls-1" d="M250.38,90.48h0l.24.12Z"/><path class="cls-1" d="M250.23,90.42l0,0S250.26,90.39,250.23,90.42Z"/><path class="cls-1" d="M249.12,89.56c.24-.1.67-.13.43-.53C249.34,89.19,249.48,89.41,249.12,89.56Z"/><path class="cls-1" d="M250.23,90l-.28-.2c0,.09,0,.22-.14.27Z"/><polygon class="cls-1" points="250.42 89.96 250.23 89.99 250.34 90.06 250.42 89.96"/><path class="cls-1" d="M251.73,91.1a.77.77,0,0,1,.52,0,1.91,1.91,0,0,0-.52-.29C251.67,90.9,251.53,91,251.73,91.1Z"/><path class="cls-1" d="M251.08,90.78h0S251.09,90.73,251.08,90.78Z"/><polygon class="cls-1" points="253.94 91.68 253.93 91.62 253.91 91.67 253.94 91.68"/><path class="cls-1" d="M251.72,90.75c-.12-.11-.22-.06-.34,0a2.14,2.14,0,0,1,.35.06S251.77,90.75,251.72,90.75Z"/><path class="cls-1" d="M252.71,91.6a1.5,1.5,0,0,0-.19-.25C252.56,91.47,252.65,91.67,252.71,91.6Z"/><path class="cls-1" d="M251.13,90.87h0C251.13,91,251.13,90.92,251.13,90.87Z"/><path class="cls-1" d="M251.13,90.87a.82.82,0,0,0,.25-.12,1.1,1.1,0,0,0-.26,0S251.13,90.84,251.13,90.87Z"/><path class="cls-1" d="M255.08,89.9a.41.41,0,0,1-.76,0c-.37.11-.49,1.11-.39,1.72,0-.12.09-.24.46-.29-.06-.2-.58-.6-.23-.77.46,0,.31.22.46.44-.06-.41.69-.33.76-.88l-.41.06C255,90.09,255.16,90,255.08,89.9Z"/><path class="cls-1" d="M253.34,91.38h-.15c.14.1.2.25.33.54.26-.06.34-.15.39-.24l-.63-.26Z"/><path class="cls-1" d="M252.61,91.17c.21-.27.56-.29.49-.69-.39-.11-.36.16-.63.22.64.13-.24.1.14.43a1.38,1.38,0,0,1-.36,0,1.6,1.6,0,0,1,.27.25v0h0s0-.08,0,0h0a.3.3,0,0,1,.07-.11c.15.13,0,.09-.07.11l0,0h0l.67.05A1.35,1.35,0,0,0,252.61,91.17Z"/><path class="cls-1" d="M250.12,88.52a.11.11,0,0,1,0,.08C250.17,88.57,250.19,88.55,250.12,88.52Z"/><path class="cls-1" d="M250.29,88.8c-.06,0-.14.13-.27,0s.06-.14.09-.24-.38.09-.17.34l.06,0c.2.2.36.7.3.73A2.43,2.43,0,0,0,250.29,88.8Z"/><path class="cls-1" d="M251.47,89.93l.57,0-.16-.35,0,.16C251.56,89.61,251.56,89.83,251.47,89.93Z"/><polygon class="cls-1" points="253.95 91.86 253.77 92.16 254.22 91.8 253.95 91.86"/><polygon class="cls-1" points="254.63 92.05 254.52 92.32 254.75 92.21 254.63 92.05"/><path class="cls-1" d="M273.59,97.48l-.11.14A.54.54,0,0,0,273.59,97.48Z"/><path class="cls-1" d="M274.62,97.08l0-.15C274.57,97,274.57,97.09,274.62,97.08Z"/><path class="cls-1" d="M271.8,95.27c.22.28.47.72.45.39l-.05-.33A.45.45,0,0,1,271.8,95.27Z"/><path class="cls-1" d="M282.93,92.92,283,93l.09-.34Z"/><path class="cls-1" d="M283,94.28l-.33-.14A1.3,1.3,0,0,0,283,94.28Z"/><path class="cls-1" d="M268.3,100.31v.37C268.55,100.56,268.36,100.47,268.3,100.31Z"/><path class="cls-1" d="M261.71,93.79a1.21,1.21,0,0,0,.45.31C262,93.86,261.82,93.54,261.71,93.79Z"/><path class="cls-1" d="M272.73,94.1a.24.24,0,0,0-.06.24C272.75,94.25,272.78,94.17,272.73,94.1Z"/><path class="cls-1" d="M262.73,94.2l-.09-.09a.87.87,0,0,1-.48,0C262.31,94.27,262.49,94.39,262.73,94.2Z"/><path class="cls-1" d="M250.93,113.39a.08.08,0,0,1-.07,0S250.91,113.42,250.93,113.39Z"/><path class="cls-1" d="M244.18,116.22a1.11,1.11,0,0,1,.15-.23C244.28,116,244.23,116.08,244.18,116.22Z"/><path class="cls-1" d="M257.35,93c-.16,0,0,0,0,0Z"/><path class="cls-1" d="M257,91.54a.2.2,0,0,0,.1-.13A.24.24,0,0,1,257,91.54Z"/><path class="cls-1" d="M264.57,92.48h0C264.55,92.41,264.55,92.42,264.57,92.48Z"/><path class="cls-1" d="M257.17,92.78a.56.56,0,0,0,.16.14Z"/><path class="cls-1" d="M257.15,92.93l-.11-.06S257,93,257.15,92.93Z"/><path class="cls-1" d="M257.55,93a.44.44,0,0,1-.22-.1s0,.06,0,.06Z"/><path class="cls-1" d="M259.13,104.86h0C259.05,105.05,259.09,105,259.13,104.86Z"/><path class="cls-1" d="M275.72,92l0,0h0Z"/><path class="cls-1" d="M276.23,91.73c-.21.4-.34.35-.51.27l.19.94Z"/><path class="cls-1" d="M271.2,98.57l.45.13c-.2.59-.54.6-.07.82-.38-1,1.22-.62.87-1.58l.3.11c-.07,0-.05.08-.12.09.61.28,0-.81.64-.9.22,0,.41.07.32.24l.34-.41c.13,0,.16.14,0,.18l.62-.35v0a2.92,2.92,0,0,1,.23-.65c.22.08-.05.13,0,.24.09-.13.19-.24.29-.36.24.2,0,.53-.25.6.69.82.22-.35,1.16,0l-.3.23c.42.47.62.19,1.12.4-.15-.15-1.08-.6-.76-1,.14,0,.3,0,.45-.24.12.34.3.19.56.08l.13.46c.24-.22.14-.45.25-.71.33,0,.5.28.67.56.53-.1-.52-.46.05-.74.48,0,.71-.28,1.16-.67.35.09,0,.3.17.41l.17-.44c.07,0,.08.12.08.18.19-.2-.1-.47.23-.68,0-.54.93.58,1.23-.11.14.11,0,.3.09.47a3.69,3.69,0,0,0,.85-1l.49.21c-.38-.28-.07-.8.23-1.22a4.05,4.05,0,0,0-.36-.33l.54-.39h0l.24,1.12a.24.24,0,0,1-.05-.2l-.15-.71a.79.79,0,0,1,0,.24.83.83,0,0,0,.08-.12l.09.46v0c-.24-.11-.2-.38-.14-.65l.17.81,0,.06L283,93a1.78,1.78,0,0,0-.07.93.51.51,0,0,1,.16-.17.39.39,0,0,0,0,.21s.07-.07.14-.22l.23.5V94h0l-.54-2.5h0l0,0-.08,0-.19,0-.38-.09c-.42.61-.77,1.47-1.62,1.79.17-.41,0-.64-.07-1.1.29.45.63-.28,1.07-.25a.22.22,0,0,1-.17-.33c-.23.19-.47.36-.71.54,0-.38-.2-.26-.42-.39.24.73-.53.56-.83.81,0-.25,0-.51.41-.48-.48-.53-.48.92-.95.48.1,0,.15,0,.18-.11-.21.25-.77.11-.65-.12h.09c-.64-.06-1.93.09-2,.73a7.61,7.61,0,0,1,.09-.9c-.35.72-.73,1.43-1.12,2.15.1-.55-.29-1.85.23-2.16a.55.55,0,0,0-.65,0c.1.07.26.79.11.84-.39-.61-.27-.33-.74-.84.15.11,0,1-.28.94,0-.13,0-.85.08-.94l-.63.82c.16-.14.05-.71-.08-1,.06.16-.53,0-.69,0l.25.2c-.68-.15-.74,1.17-1.44,1.09.1-.17.27-1.06-.07-1.19-.18.42-.85,2-1.52,2.29l-.1-.25-.5.24a19.12,19.12,0,0,1,1.78-2.42c-.24-.21-.05-.29-.44-.3-.11-.24.24-.33.35-.34l-.87-.22c0,.51-.73.45-.74.87l1-.44c0,.5-.68,1.38-1.32,1.23-.15-.21.21-.88.21-1-.1.18-.64.27-.68.14l.3-.23c-.33-.24-.65.58-1,0-.15,0-.36-.7-.42-.41a6.62,6.62,0,0,1-.23,2.78,4.42,4.42,0,0,1-.85-1c-.18-.48.52-1,.36-1.42a.66.66,0,0,1-.25.33c-.13-.14.13-.42-.21-.4-.14.5-.68-.13-.23.41-.35.1-.33-.16-.72-.21.07.35-.53,1-.89,1.13a.68.68,0,0,0,0-.38c-.67-.17-1-.46-1.62-.58,0-.13-.31-.33-.14-.53-.11.08-.22.22-.42.19-.28-.52.44,0,.27-.55-.08.28-.58.28-.89.4,0,.47.61.24.92.12a1.8,1.8,0,0,1-1.46,1.29c-.57,0-.14-.46-.25-.39-1-.34-1.1.88-1.82.24-.23-.46.18-.78.18-1.08.46,0,.59.4.88.46l-.31-.27c.17-.1.48-.13.6,0-.18-.42-1.64-.44-2.29-1-.16.09-.43.16-.37.35h.26c.13.38-.57.31-.31.54-.38.13-.84.37-1.24.06l.05-.46c0,.13.21.34.38.25-.25.14-.51-.8-.89-.28l.23.4c-.39.13-.93.48-1.3.22.05.49.11,0,.24.57-.05-.7,1,.32.83-.46.12.68.43.4.67,1,0-.15,0-.32.27-.15a.38.38,0,0,1,.11-.11l0,0,0,0s0,0,0,0a.47.47,0,0,1-.11-.27c.26-.29.79-.13,1-.25.18.13-.13.15-.06.33l.34-.18c-.06.33.39.7-.14.75.15,0,.29.1.43.13a.78.78,0,0,0,.79.31c.19.12.61-.24.37,0l.73,0,0,.08c.67.19,1.49-.2,2.14.53a1.34,1.34,0,0,1,.87.06l0,.3c.31,0,.83.45,1,.17.19.84,1.41.42,1.91.61l.07-.37a2.9,2.9,0,0,0,1.18-.09v-.34c.42-.23,1,.39,1.57.39-.06.13-.21.08-.31,0,.66.82,1.58-.42,2.19.18a.31.31,0,0,1,.4,0l0,0h.06a2.09,2.09,0,0,0,.22.2.55.55,0,0,0-.18-.19,1.73,1.73,0,0,0,.52-.11l.06.36h0c.18.14.16-.16.07-.44a.75.75,0,0,0,.26-.21c.13.59.5-.18.69.45.13-.29.95-.19,1.06-.82,0,.08.06.12,0,.12.21.08.41.15.6,0l.09.46.46-.62c.27.27.39.44.12.79.66-.55.54-.21,1.09-.75l0,.3c.21,0,.51-.44.64-.2.48.56,2.24,0,3.46.35-.33-.84.6.32.56-.36.09.2.28.29.11.49.57-.27,1,.19,1.29-.44.11.2-.08.32,0,.43.05,0,.17-.21.26-.1s-.06.19-.15.3c.65-.16.58-.8.5-1.4l.16.07L283,91.82c-.25-.11-.37,0-.49.37-.14-.16-.36-.32,0-.48-.22,0-1.33,0-1.25.49-.09-.11-.29,0-.33.1a4,4,0,0,0-1,.19l.15.05c0,.6-.35.21-.69.36v-.06c-.94-.2-.31.26-1.25,0l.14.33c.14.77-.84-.21-1.23.23l.23.14c-.17.34-1-.77-1.32-.78-.07,0,.06-.13.12-.2-.82-.21.06.47-.41.74-.18-.21-.08-.65-.44-.58-.24-.14-.72,1.1-1.35.79.17.15.34.3.15.52s-1.21-.31-1.3.39a.26.26,0,0,1-.12-.11c-.21.26-.76.6-.79,1-.74-1-1.41,1.23-1.86.18-.27.13-.52.3-.78.44l0-.11a.88.88,0,0,0-.65.86c-.15,0-.11-.15-.13-.21-.84.16-.9.25-1.25,1.06l-.24-.3c-.06.27-1.35,0-1.83.84a.3.3,0,0,1,0-.19c-.56.83-2.42.23-2,1.55l-.33.59c.72-.3.21.56.6.59-.22.21-.87.08-.6-.19l.08,0c-.26-.67-.92.33-1.17-.09-1.24.89-2.72,1.38-3.86,2.25l.46.34-.42.28c-.18,0-.4-.24-.1-.43-.34-.14-.32.56-.25.66-.7.25-.18-.67-.36-.55l-.2.21H257c-.05.32.08.52-.28.76-.28.08-.32-.18-.42-.13s-.06,0-.14.08-.34.25-.52.37l.47.17c-.08.35-.47.36.06.56-.8-.32-2,1.29-2.31,1.28a1.62,1.62,0,0,1-.75,1c.15,0,.53.3.19.53-.57-.84-.85.19-1.58-.12.54.15-.78.88,0,1.06-.31.17-.28-.26-.63-.25-.31.85-1.45,1.09-2.08,1.9.08.1.35.13.34.42l-.85-.08c-.09.2.43.66-.15.62.12,0,.29.09.23.22-1.84,1-2.28,3.33-4.48,4.16.37-.07.28.1.16.27.13-.07.25.2.41.29l-.91.37c.3.41-.52.76-.18,1.11l.08-.27c.25.61,1.3.33,1.84.81-.27-.69,1.36-.23,1-1.28.2,0,.11.24.28.28-.14-.31-.07-.5.27-.69l0,.08c.56-.83,1.09-1,2-1.67l-.32-.17a.75.75,0,0,1,.45-.14c-.22-.57-.46.49-.75-.09.74.23,1.16-1.26,1.91-.86.26-.27-.37-.2-.12-.47l.23.08-.15-.27a.54.54,0,0,1,.63.08c-.05,0-.07.16-.1.21.4,0,.54-.7.68-.72l-.35.16c.57-.86,1.63-1.54,2-2.53l-.17-.07c.34-.74.56-.27,1.07-.94v0a.73.73,0,0,1,.29-.58c0,.28.54,0,.49.36.37-.79.11-.47.1-1.29l.28.13c0-.31-.1-.42.17-.74-.1.4.48.15.4.64,1.05-.09.58-1.3,1.45-.87-.18-.85-.84.15-.78-.12-.3-.07-.11-.65.15-.77s1,.45,1.51,0c-.06,0,0,.09-.08.13.32,0,.23-.52.68-.46-.14-.47.35-.23,0-.73l-.43.49c.19-.33,0-1.09.72-1.19a1.08,1.08,0,0,1-.05.5c.24,0,.2-.29.45-.26.31.51-.54.57-.57,1.17.3.08.32-.79.55-.16-.27-.82.6-.32.6-1.11l.19.31c0-.09,0-.32.16-.39l.08.52c.06-.55.77-.17,1-.53-.62.43-.39-.26-.8-.29.49-.92,1,.46,1.74-.26-.09.12-.56.12-.47-.14a1.19,1.19,0,0,1,.7,0c.53-.45-.29-.24-.17-.59.44.23.18-.34.36-.62l.2.3c.78-.25-.23-.75.51-.92l0,.59.24-.31.16.39c.16-.49.33-.47.72-.58a.48.48,0,0,1,0-.77c.32.06.06.36.46.07,0,.25.07.55-.29.38,0,.11,0,.25.06.36.35.08.58-.28.73-.37a.35.35,0,0,1-.2,0l.36-.79c.16.06.14.2.12.33.1-.1.11-.3.27-.43.1.28.27.53.08.81l.42-.63c.1.09.47.13.45.27.4,0,.52-1,1.08-1a.26.26,0,0,1,.09-.22c.45-.15,1,0,1.3-.63l.51.34c.34-.31-.67-.41-.11-.91.39-.39.36.31.59.37.11-.35.27-1.07.89-.84C271.46,98.51,271.32,98.48,271.2,98.57Zm4.91-2.18c-.08.1-.2.38-.34.21C275.74,96.17,275.9,96.33,276.11,96.39Zm6.47-4.27c.05-.13.18-.1.33,0A.33.33,0,0,1,282.58,92.12Zm-23.56,1v0C259.24,93.31,259.17,93.24,259,93.14Zm-.46-.28a.13.13,0,0,0-.06.14c.05-.08.17,0,.29,0S258.73,92.83,258.56,92.86Zm-2.18,11,.14,0C256.4,104.13,256.4,104,256.38,103.89Z"/><path class="cls-1" d="M283,94.12a.64.64,0,0,1-.08-.19A.13.13,0,0,0,283,94.12Z"/><path class="cls-1" d="M268.3,100.24h0a.13.13,0,0,0,0,.06Z"/><path class="cls-1" d="M266.73,91.39a.35.35,0,0,1,.16.21C266.91,91.51,266.88,91.43,266.73,91.39Z"/><path class="cls-1" d="M255.79,92.71h.35c-.16,0-.19-.12-.25-.2C255.87,92.6,255.89,92.73,255.79,92.71Z"/><path class="cls-1" d="M253.8,89.72c-.06,0-.09,0-.15,0l0,.16C253.8,89.93,254,89.85,253.8,89.72Z"/><path class="cls-1" d="M255.85,91.47c.07-.3-.16-.25-.39-.26h0C255.31,91.61,255.58,91.54,255.85,91.47Z"/><path class="cls-1" d="M255.4,91.2a.35.35,0,0,1-.2,0C255.12,91.31,255.27,91.21,255.4,91.2Z"/><path class="cls-1" d="M257.89,92.88c-.09-.11-.17.36-.2.22C257.48,93.44,258.51,92.85,257.89,92.88Z"/><polygon class="cls-1" points="255.97 90.46 255.94 90.84 256.14 90.59 255.97 90.46"/><path class="cls-1" d="M257.59,91.22l-.32-.2c0,.06-.06.08-.12.09C257.35,91.19,257.57,91.33,257.59,91.22Z"/><path class="cls-1" d="M257.15,91.11a.45.45,0,0,0-.3,0A.7.7,0,0,0,257.15,91.11Z"/><polygon class="cls-1" points="256.47 90.49 256.55 90.59 256.78 90.69 256.47 90.49"/><path class="cls-1" d="M261.31,92.23h.4c.07-.12,0-.22-.17-.21S261.27,92.1,261.31,92.23Z"/><path class="cls-1" d="M260.39,91c.09.1.08.19.1.32l.12-.45Z"/><path class="cls-1" d="M261.51,91.11c.07-.12.63-.23.15-.32C261.59,90.91,261.19,90.93,261.51,91.11Z"/><polygon class="cls-1" points="267.14 92.73 267.04 92.72 266.95 93.48 267.14 92.73"/><path class="cls-1" d="M272.37,91.39c-.44-.2-.14.47-.53.22-.11.18.32.21.21.36C272.33,91.79,272.46,91.9,272.37,91.39Z"/><path class="cls-1" d="M272.05,92a.48.48,0,0,0-.15.11Z"/><polygon class="cls-1" points="243.17 116.88 242.86 117.04 243.18 117.03 243.17 116.88"/><path class="cls-1" d="M243.28,117.69l-.44-.21.25.41C243.11,117.82,243.16,117.68,243.28,117.69Z"/><path class="cls-1" d="M277.17,97.07V97c-.08-.1-.15-.09-.28-.07Z"/><polygon class="cls-1" points="273.44 98.06 273.5 98.04 273.22 97.68 273.44 98.06"/><path class="cls-1" d="M270.71,99.87c.13,0,.22-.2.35-.24C270.84,99.83,270.44,99.4,270.71,99.87Z"/></g></g></svg>